<?xml version="1.0" encoding="UTF-8" standalone="no"?>
<!-- Created with Inkscape (http://www.inkscape.org/) -->

<svg
   xmlns:dc="http://purl.org/dc/elements/1.1/"
   xmlns:cc="http://creativecommons.org/ns#"
   xmlns:rdf="http://www.w3.org/1999/02/22-rdf-syntax-ns#"
   xmlns:svg="http://www.w3.org/2000/svg"
   xmlns="http://www.w3.org/2000/svg"
   xmlns:sodipodi="http://sodipodi.sourceforge.net/DTD/sodipodi-0.dtd"
   xmlns:inkscape="http://www.inkscape.org/namespaces/inkscape"
   width="1250.2904"
   height="787.4267"
   viewBox="0 0 1250.2904 787.42671"
   id="svg4937"
   version="1.1"
   inkscape:version="0.91 r13725"
   sodipodi:docname="ML_eran_design2.svg">
  <defs
     id="defs4939">
    <marker
       inkscape:stockid="Arrow1Lend"
       orient="auto"
       refY="0"
       refX="0"
       id="Arrow1Lend"
       style="overflow:visible"
       inkscape:isstock="true">
      <path
         id="path5784"
         d="M 0,0 5,-5 -12.5,0 5,5 0,0 Z"
         style="fill:#000000;fill-opacity:1;fill-rule:evenodd;stroke:#000000;stroke-width:1pt;stroke-opacity:1"
         transform="matrix(-0.8,0,0,-0.8,-10,0)"
         inkscape:connector-curvature="0" />
    </marker>
    <clipPath
       id="clipPath6392"
       clipPathUnits="userSpaceOnUse">
      <path
         inkscape:connector-curvature="0"
         id="path6394"
         d="m 0,212.6 212.6,0 L 212.6,0 0,0 0,212.6 Z" />
    </clipPath>
    <clipPath
       clipPathUnits="userSpaceOnUse"
       id="clipPath9052">
      <path
         d="M 0,148 148,148 148,0 0,0 0,148 Z"
         id="path9054"
         inkscape:connector-curvature="0" />
    </clipPath>
    <clipPath
       id="clipPath6067"
       clipPathUnits="userSpaceOnUse">
      <path
         inkscape:connector-curvature="0"
         id="path6069"
         d="m 0,212.6 212.6,0 L 212.6,0 0,0 0,212.6 Z" />
    </clipPath>
    <clipPath
       id="clipPath6096"
       clipPathUnits="userSpaceOnUse">
      <path
         inkscape:connector-curvature="0"
         id="path6098"
         d="m 0,226.489 247.488,0 L 247.488,0 0,0 0,226.489 Z" />
    </clipPath>
  </defs>
  <sodipodi:namedview
     id="base"
     pagecolor="#ffffff"
     bordercolor="#666666"
     borderopacity="1.0"
     inkscape:pageopacity="0.0"
     inkscape:pageshadow="2"
     inkscape:zoom="0.59106268"
     inkscape:cx="625.1452"
     inkscape:cy="393.71335"
     inkscape:document-units="px"
     inkscape:current-layer="layer1"
     showgrid="true"
     units="px"
     showguides="false"
     inkscape:window-width="1292"
     inkscape:window-height="741"
     inkscape:window-x="-9"
     inkscape:window-y="-9"
     inkscape:window-maximized="1"
     objecttolerance="10000"
     guidetolerance="10000"
     fit-margin-top="10"
     fit-margin-left="10"
     fit-margin-bottom="10"
     fit-margin-right="10">
    <inkscape:grid
       type="xygrid"
       id="grid5485"
       empspacing="20"
       originx="52.388447"
       originy="-67.006313" />
  </sodipodi:namedview>
  <metadata
     id="metadata4942">
    <rdf:RDF>
      <cc:Work
         rdf:about="">
        <dc:format>image/svg+xml</dc:format>
        <dc:type
           rdf:resource="http://purl.org/dc/dcmitype/StillImage" />
        <dc:title></dc:title>
      </cc:Work>
    </rdf:RDF>
  </metadata>
  <g
     inkscape:label="Layer 1"
     inkscape:groupmode="layer"
     id="layer1"
     transform="translate(52.388447,-197.92914)">
    <circle
       style="color:#000000;clip-rule:nonzero;display:inline;overflow:visible;visibility:visible;opacity:1;isolation:auto;mix-blend-mode:normal;color-interpolation:sRGB;color-interpolation-filters:linearRGB;solid-color:#000000;solid-opacity:1;fill:#808000;fill-opacity:1;fill-rule:evenodd;stroke:none;stroke-width:0.30000001;stroke-linecap:round;stroke-linejoin:round;stroke-miterlimit:4;stroke-dasharray:none;stroke-dashoffset:0;stroke-opacity:1;color-rendering:auto;image-rendering:auto;shape-rendering:auto;text-rendering:auto;enable-background:accumulate"
       id="path5689"
       cx="574.54822"
       cy="641.586"
       r="240" />
    <g
       transform="matrix(1.25,0,0,-1.25,515.83723,545.95772)"
       inkscape:label="86.ai_original (1)"
       id="g6061"
       style="fill:#cccccc;opacity:0.5">
      <g
         id="g6063"
         style="fill:#cccccc">
        <g
           clip-path="url(#clipPath6067)"
           id="g6065"
           style="fill:#cccccc">
          <g
             transform="translate(142.8701,77.0752)"
             id="g6071"
             style="fill:#cccccc">
            <path
               inkscape:connector-curvature="0"
               id="path6073"
               style="fill:#cccccc;fill-opacity:1;fill-rule:nonzero;stroke:none"
               d="m 0,0 c -3.217,0 -5.834,2.619 -5.834,5.839 0,3.219 2.617,5.837 5.834,5.837 3.219,0 5.838,-2.618 5.838,-5.837 C 5.838,2.619 3.219,0 0,0 m -9.449,8.534 -22.872,1.671 4.813,7.358 c 1.112,-0.44 2.323,-0.69 3.592,-0.69 2.228,0 4.28,0.754 5.932,2.009 l 9.421,-8.223 C -8.938,9.995 -9.236,9.282 -9.449,8.534 m -31.248,-15.16 c -0.408,0.665 -0.885,1.284 -1.434,1.833 L -34.826,6.376 -9.738,4.544 C -9.736,4.521 -9.731,4.498 -9.729,4.475 L -40.697,-6.626 Z m -8.379,-10.966 c -3.217,0 -5.834,2.619 -5.834,5.839 0,3.219 2.617,5.837 5.834,5.837 3.219,0 5.838,-2.618 5.838,-5.837 0,-3.22 -2.619,-5.839 -5.838,-5.839 M -61.879,5.196 c 0.66,0.912 1.166,1.939 1.483,3.047 l 7.931,-0.578 0.711,-9.961 c -0.831,-0.236 -1.615,-0.579 -2.34,-1.013 l -7.785,8.505 z m 5.387,20.429 c 0.874,-0.405 1.815,-0.684 2.804,-0.816 l 0.936,-13.112 -7.354,0.537 c -0.265,2 -1.131,3.809 -2.414,5.245 l 6.028,8.146 z M -69.849,5.102 c -3.217,0 -5.835,2.619 -5.835,5.838 0,3.219 2.618,5.837 5.835,5.837 3.219,0 5.837,-2.618 5.837,-5.837 0,-3.219 -2.618,-5.838 -5.837,-5.838 m -4.637,46.045 c -3.217,0 -5.834,2.62 -5.834,5.839 0,3.219 2.617,5.837 5.834,5.837 3.218,0 5.838,-2.618 5.838,-5.837 0,-3.219 -2.62,-5.839 -5.838,-5.839 m 13.927,-11.146 c -1.043,-1.562 -1.654,-3.436 -1.654,-5.451 0,-2.512 0.954,-4.801 2.509,-6.541 l -6.028,-8.147 c -0.959,0.445 -1.997,0.747 -3.09,0.862 l -2.707,26.88 c 0.846,0.267 1.64,0.651 2.373,1.125 l 8.597,-8.728 z m -4.513,14.138 21.281,-1.898 -5.229,-8.458 c -1.049,0.384 -2.177,0.604 -3.359,0.604 -1.963,0 -3.79,-0.585 -5.327,-1.581 l -8.599,8.727 c 0.532,0.795 0.95,1.671 1.233,2.606 m 26.174,11.067 c 0.452,-0.851 1.023,-1.629 1.695,-2.309 l -4.235,-6.849 -22.245,1.982 24.785,7.176 z M -9.4,49.175 -43.699,39.172 c -0.502,0.937 -1.155,1.78 -1.92,2.506 l 6.285,10.166 29.934,-2.669 z m -24.471,11.506 c 1.133,-0.457 2.366,-0.715 3.66,-0.715 2.801,0 5.326,1.182 7.119,3.068 l 15.207,-9.436 c -0.064,-0.174 -0.131,-0.347 -0.184,-0.526 l -28.911,2.578 3.109,5.031 z m 3.66,14.961 c 3.219,0 5.838,-2.619 5.838,-5.837 0,-3.22 -2.619,-5.839 -5.838,-5.839 -3.217,0 -5.834,2.619 -5.834,5.839 0,3.218 2.617,5.837 5.834,5.837 M -52.379,28.711 c -3.217,0 -5.834,2.619 -5.834,5.839 0,3.219 2.617,5.837 5.834,5.837 3.219,0 5.838,-2.618 5.838,-5.837 0,-3.22 -2.619,-5.839 -5.838,-5.839 M -39.387,6.71 -45.48,-2.606 c -0.725,0.286 -1.489,0.485 -2.284,0.592 l -0.67,9.384 9.047,-0.66 z m -9.334,4.692 -0.976,13.69 c 2.64,0.751 4.83,2.575 6.064,4.973 l 9.914,-2.729 c -0.013,-0.207 -0.031,-0.413 -0.031,-0.624 0,-2.717 1.106,-5.18 2.893,-6.962 l -6.026,-9.212 -11.838,0.864 z m 30.643,15.31 c 0,-3.22 -2.619,-5.839 -5.838,-5.839 -3.217,0 -5.834,2.619 -5.834,5.839 0,3.219 2.617,5.837 5.834,5.837 3.219,0 5.838,-2.618 5.838,-5.837 M -7.059,45.136 -18.236,34.729 c -1.607,1.141 -3.564,1.82 -5.68,1.82 -3.809,0 -7.11,-2.181 -8.744,-5.355 l -9.912,2.73 c 0.012,0.208 0.031,0.415 0.031,0.626 0,0.263 -0.02,0.523 -0.039,0.781 L -7.338,45.61 c 0.087,-0.163 0.184,-0.318 0.279,-0.474 m 8.401,10.927 c 3.219,0 5.838,-2.619 5.838,-5.837 0,-3.22 -2.619,-5.839 -5.838,-5.839 -3.217,0 -5.834,2.619 -5.834,5.839 0,3.218 2.617,5.837 5.834,5.837 M 2.34,15.383 2.752,29.104 c 0.033,1.104 -0.834,2.026 -1.939,2.059 -1.124,0.066 -2.026,-0.836 -2.059,-1.938 L -1.658,15.524 c -1.585,-0.27 -3.039,-0.92 -4.27,-1.855 l -9.422,8.223 c 0.806,1.425 1.272,3.068 1.272,4.82 0,1.863 -0.531,3.601 -1.435,5.088 l 11.178,10.406 c 1.004,-0.714 2.147,-1.24 3.38,-1.537 l -0.072,-3.57 c -0.023,-1.105 0.855,-2.018 1.959,-2.04 l 0.041,0 c 1.086,0 1.976,0.869 1.999,1.96 l 0.071,3.525 c 4.615,0.81 8.137,4.838 8.137,9.682 0,5.423 -4.414,9.837 -9.838,9.837 -2.8,0 -5.324,-1.183 -7.117,-3.068 l -15.206,9.437 c 0.386,1.053 0.608,2.186 0.608,3.373 0,5.424 -4.413,9.837 -9.838,9.837 -5.422,0 -9.834,-4.413 -9.834,-9.837 0,-0.255 0.02,-0.505 0.038,-0.755 l -25.788,-7.467 c -1.654,3.113 -4.928,5.24 -8.691,5.24 -5.423,0 -9.834,-4.413 -9.834,-9.837 0,-5.079 3.867,-9.271 8.81,-9.785 l 2.707,-26.879 c -3.983,-1.258 -6.881,-4.987 -6.881,-9.382 0,-5.424 4.413,-9.838 9.835,-9.838 1.835,0 3.548,0.514 5.021,1.392 l 7.783,-8.505 c -1.168,-1.617 -1.865,-3.597 -1.865,-5.742 0,-5.425 4.411,-9.839 9.834,-9.839 5.424,0 9.838,4.414 9.838,9.839 0,0.463 -0.044,0.916 -0.106,1.362 L -8.376,0.71 C -6.646,-2.109 -3.543,-4 0,-4 c 5.425,0 9.838,4.414 9.838,9.839 0,4.616 -3.201,8.49 -7.498,9.544" />
          </g>
        </g>
      </g>
    </g>
    <g
       transform="matrix(1.25,0,0,-1.25,227.64371,643.21222)"
       inkscape:label="335_original (1)"
       id="g6090"
       style="fill:#cccccc;opacity:0.5">
      <g
         id="g6092"
         style="fill:#cccccc">
        <g
           clip-path="url(#clipPath6096)"
           id="g6094"
           style="fill:#cccccc">
          <g
             transform="translate(111.1329,144.7688)"
             id="g6100"
             style="fill:#cccccc">
            <path
               inkscape:connector-curvature="0"
               id="path6102"
               style="fill:#cccccc;fill-opacity:1;fill-rule:nonzero;stroke:none"
               d="m 0,0 c 0.37,-1.04 -0.17,-2.19 -1.21,-2.561 -0.22,-0.08 -0.45,-0.12 -0.67,-0.12 -0.82,0 -1.59,0.5 -1.89,1.321 -0.37,1.03 0.161,2.179 1.21,2.559 C -1.529,1.569 -0.38,1.029 0,0 m -20.12,-14.171 c -0.85,0.7 -0.97,1.971 -0.27,2.811 0.71,0.86 1.97,0.969 2.821,0.269 0.849,-0.71 0.969,-1.97 0.259,-2.819 -0.39,-0.471 -0.96,-0.721 -1.54,-0.721 -0.45,0 -0.9,0.151 -1.27,0.46 m 4.66,5.221 c -0.71,0.84 -0.609,2.099 0.24,2.819 0.84,0.71 2.1,0.61 2.81,-0.239 0.721,-0.84 0.61,-2.101 -0.23,-2.82 -0.38,-0.321 -0.839,-0.47 -1.29,-0.47 -0.57,0 -1.13,0.239 -1.53,0.71 m -9.09,-8.45 c 0.54,0.96 1.76,1.299 2.72,0.75 0.971,-0.54 1.301,-1.76 0.761,-2.72 -0.37,-0.66 -1.051,-1.021 -1.75,-1.021 -0.33,0 -0.671,0.08 -0.981,0.26 -0.96,0.551 -1.3,1.761 -0.75,2.731 m 14.6,12.759 c -0.55,0.96 -0.23,2.181 0.73,2.741 0.95,0.549 2.18,0.219 2.73,-0.731 0.551,-0.96 0.23,-2.18 -0.73,-2.729 -0.309,-0.191 -0.66,-0.271 -1,-0.271 -0.69,0 -1.36,0.351 -1.73,0.99 m 58.494,-46.712 c -6.698,0 -12.148,5.449 -12.148,12.147 0,6.699 5.45,12.149 12.148,12.149 6.698,0 12.148,-5.45 12.148,-12.149 0,-6.698 -5.45,-12.147 -12.148,-12.147 M 21.943,-84.542 c 0,-0.542 -0.458,-1 -1,-1 l -18.817,0 c -0.542,0 -1,0.458 -1,1 l 0,18.817 c 0,0.542 0.458,1 1,1 l 18.817,0 c 0.542,0 1,-0.458 1,-1 l 0,-18.817 z m -47.208,58.334 12.843,-22.864 -25.685,0 12.842,22.864 z m 89.957,-12.998 c 0,8.347 -6.365,15.235 -14.496,16.065 -2.427,6.298 -6.391,11.967 -11.516,16.416 -0.834,0.724 -2.098,0.635 -2.822,-0.2 -0.723,-0.834 -0.634,-2.097 0.201,-2.822 4.277,-3.713 7.661,-8.367 9.882,-13.54 -7.667,-1.251 -13.545,-7.902 -13.545,-15.919 0,-7.659 5.368,-14.078 12.536,-15.725 -4.033,-7.96 -10.768,-14.214 -18.989,-17.643 l 0,6.849 c 0,2.757 -2.243,5 -5,5 l -18.817,0 c -2.757,0 -5,-2.243 -5,-5 l 0,-6.849 c -8.895,3.701 -15.984,10.642 -19.869,19.502 l 12.234,0 c 0.53,0 1.039,0.211 1.414,0.586 1.442,1.441 1.514,3.74 0.219,5.27 l -13.306,23.686 c -0.089,0.159 -0.201,0.306 -0.33,0.435 -1.517,1.517 -3.988,1.518 -5.506,10e-4 -0.129,-0.129 -0.241,-0.277 -0.331,-0.436 l -13.304,-23.685 c -0.596,-0.702 -0.92,-1.584 -0.92,-2.518 0,-1.042 0.404,-2.02 1.139,-2.754 0.375,-0.375 0.883,-0.585 1.413,-0.585 l 12.944,0 c 4.325,-11.091 13.095,-19.683 24.203,-23.796 l 0,-7.674 c 0,-2.757 2.243,-5 5,-5 l 18.817,0 c 2.757,0 5,2.243 5,5 l 0,7.671 c 10.287,3.816 18.645,11.565 23.237,21.55 8.608,0.338 15.512,7.427 15.512,16.115 m -41.36,51.189 0,14.333 c 0,1.104 0.896,2 2,2 1.105,0 2,-0.896 2,-2 l 0,-14.333 c 0,-1.105 -0.895,-2 -2,-2 -1.104,0 -2,0.895 -2,2 m -27.594,0 0,14.333 c 0,1.104 0.896,2 2,2 1.105,0 2,-0.896 2,-2 l 0,-14.333 c 0,-1.105 -0.895,-2 -2,-2 -1.104,0 -2,0.895 -2,2 m 11.297,11.964 6.123,0 -6.336,-6.266 0,6.052 c 0,0.114 0.1,0.214 0.213,0.214 m 0.992,-36.665 8.224,8.178 0,-16.356 -8.224,8.178 z m 7.388,12.987 -8.593,-8.544 0,17.088 8.593,-8.544 z m 0.836,21.111 0,-16.302 -8.22,8.173 8.22,8.129 z m -9.429,-55.628 0,17.087 8.592,-8.544 -8.592,-8.543 z m -2,-10.428 c 1.105,0 2,0.895 2,2 l 0,2.788 9.429,9.375 0,-12.163 c 0,-1.105 0.895,-2 2,-2 1.104,0 2,0.895 2,2 l 0,41.059 c 3.577,-0.852 6.998,-2.225 10.188,-4.096 0.319,-0.187 0.666,-0.275 1.01,-0.275 0.687,0 1.355,0.354 1.728,0.988 0.558,0.954 0.239,2.179 -0.714,2.738 -3.808,2.232 -7.914,3.818 -12.212,4.738 l 0,21.257 c 0,2.323 -1.891,4.214 -4.214,4.214 l -9.002,0 c -2.323,0 -4.213,-1.891 -4.213,-4.214 l 0,-66.409 c 0,-1.105 0.896,-2 2,-2" />
          </g>
        </g>
      </g>
    </g>
    <g
       transform="matrix(1.4998575,0,0,-1.4998575,269.51529,889.61382)"
       id="g9048"
       inkscape:export-xdpi="98.681702"
       inkscape:export-ydpi="98.681702"
       style="fill:#cccccc;opacity:0.5">
      <g
         id="g9050"
         clip-path="url(#clipPath9052)"
         style="fill:#cccccc">
        <g
           id="g9056"
           transform="translate(34.3901,76.5015)"
           style="fill:#cccccc">
          <path
             d="m 0,0 c 0,0.95 -0.081,1.589 -0.242,1.917 -0.161,0.326 -0.403,0.49 -0.725,0.49 -0.329,0 -0.566,-0.167 -0.713,-0.5 C -1.826,1.573 -1.9,0.955 -1.9,0.054 c 0,-0.911 0.081,-1.534 0.242,-1.867 0.161,-0.334 0.394,-0.501 0.701,-0.501 0.201,0 0.376,0.071 0.524,0.211 0.149,0.143 0.257,0.367 0.328,0.672 C -0.035,-1.125 0,-0.647 0,0 m 1.977,0.083 c 0,-1.299 -0.219,-2.249 -0.659,-2.852 -0.439,-0.602 -1.197,-0.902 -2.271,-0.902 -0.602,0 -1.088,0.095 -1.459,0.287 -0.372,0.193 -0.676,0.474 -0.914,0.845 -0.172,0.264 -0.306,0.624 -0.403,1.081 -0.096,0.458 -0.144,0.963 -0.144,1.517 0,1.36 0.246,2.312 0.735,2.856 0.49,0.544 1.237,0.815 2.24,0.815 0.481,0 0.877,-0.059 1.185,-0.178 C 0.597,3.434 0.85,3.278 1.045,3.089 1.24,2.897 1.394,2.698 1.506,2.487 1.618,2.278 1.709,2.033 1.777,1.753 1.91,1.219 1.977,0.662 1.977,0.083 m 11.997,15.336 -1.646,0 C 12.116,14.97 11.823,14.592 11.449,14.287 11.075,13.981 10.549,13.718 9.872,13.5 l 0,-1.63 c 0.459,0.139 0.841,0.286 1.146,0.439 0.303,0.153 0.619,0.354 0.944,0.601 l 0,-4.771 2.012,0 0,7.28 z m -20.01,-23.377 -1.645,0 c -0.212,-0.45 -0.505,-0.828 -0.879,-1.133 -0.375,-0.306 -0.9,-0.569 -1.577,-0.786 l 0,-1.631 c 0.459,0.139 0.841,0.286 1.145,0.439 0.304,0.153 0.619,0.354 0.945,0.601 l 0,-4.771 2.011,0 0,7.281 z M 0,-23.378 c 0,0.951 -0.081,1.589 -0.242,1.918 -0.161,0.326 -0.403,0.49 -0.725,0.49 -0.329,0 -0.566,-0.168 -0.713,-0.5 -0.146,-0.334 -0.22,-0.953 -0.22,-1.854 0,-0.912 0.081,-1.535 0.242,-1.867 0.161,-0.334 0.394,-0.502 0.701,-0.502 0.201,0 0.376,0.072 0.524,0.213 0.149,0.143 0.257,0.365 0.328,0.672 0.07,0.305 0.105,0.783 0.105,1.43 m 1.506,2.488 c 0.112,-0.209 0.203,-0.455 0.271,-0.735 0.133,-0.535 0.2,-1.091 0.2,-1.669 0,-1.299 -0.219,-2.25 -0.659,-2.852 -0.439,-0.604 -1.197,-0.904 -2.271,-0.904 -0.602,0 -1.088,0.095 -1.459,0.289 -0.372,0.191 -0.676,0.472 -0.914,0.844 -0.172,0.263 -0.306,0.625 -0.403,1.082 -0.096,0.457 -0.144,0.962 -0.144,1.515 0,1.362 0.246,2.313 0.735,2.858 0.49,0.543 1.237,0.814 2.24,0.814 0.481,0 0.877,-0.059 1.185,-0.178 0.31,-0.119 0.563,-0.273 0.758,-0.463 0.195,-0.191 0.349,-0.39 0.461,-0.601 M 0,11.689 c 0,0.95 -0.081,1.589 -0.242,1.917 -0.161,0.326 -0.403,0.49 -0.725,0.49 -0.329,0 -0.566,-0.167 -0.713,-0.5 -0.146,-0.334 -0.22,-0.952 -0.22,-1.853 0,-0.911 0.081,-1.535 0.242,-1.868 0.161,-0.333 0.394,-0.5 0.701,-0.5 0.201,0 0.376,0.071 0.524,0.211 0.149,0.143 0.257,0.367 0.328,0.672 C -0.035,10.564 0,11.042 0,11.689 m 1.977,0.083 C 1.977,10.473 1.758,9.523 1.318,8.92 0.879,8.318 0.121,8.017 -0.953,8.017 c -0.602,0 -1.088,0.096 -1.459,0.288 -0.372,0.193 -0.676,0.474 -0.914,0.845 -0.172,0.264 -0.306,0.624 -0.403,1.081 -0.096,0.458 -0.144,0.963 -0.144,1.517 0,1.36 0.246,2.312 0.735,2.856 0.49,0.544 1.237,0.815 2.24,0.815 0.481,0 0.877,-0.059 1.185,-0.178 0.31,-0.118 0.563,-0.274 0.758,-0.463 0.195,-0.192 0.349,-0.391 0.461,-0.602 0.112,-0.209 0.203,-0.454 0.271,-0.734 0.133,-0.534 0.2,-1.091 0.2,-1.67 m 4.692,-35.15 c 0,0.951 -0.081,1.589 -0.241,1.918 -0.162,0.326 -0.404,0.49 -0.726,0.49 -0.329,0 -0.566,-0.168 -0.713,-0.5 -0.146,-0.334 -0.219,-0.953 -0.219,-1.854 0,-0.912 0.08,-1.535 0.242,-1.867 0.16,-0.334 0.394,-0.502 0.7,-0.502 0.202,0 0.377,0.072 0.524,0.213 0.149,0.143 0.258,0.365 0.328,0.672 0.07,0.305 0.105,0.783 0.105,1.43 m 1.507,2.488 c 0.111,-0.209 0.202,-0.455 0.27,-0.735 0.134,-0.535 0.2,-1.091 0.2,-1.669 0,-1.299 -0.219,-2.25 -0.659,-2.852 -0.439,-0.604 -1.196,-0.904 -2.27,-0.904 -0.603,0 -1.089,0.095 -1.46,0.289 -0.371,0.191 -0.676,0.472 -0.913,0.844 -0.173,0.263 -0.307,0.625 -0.403,1.082 -0.096,0.457 -0.144,0.962 -0.144,1.515 0,1.362 0.245,2.313 0.734,2.858 0.49,0.543 1.237,0.814 2.24,0.814 0.481,0 0.876,-0.059 1.186,-0.178 0.31,-0.119 0.562,-0.273 0.757,-0.463 0.195,-0.191 0.349,-0.39 0.462,-0.601 M 0,-11.689 c 0,0.95 -0.081,1.589 -0.242,1.917 -0.161,0.326 -0.403,0.49 -0.725,0.49 -0.329,0 -0.566,-0.167 -0.713,-0.5 -0.146,-0.334 -0.22,-0.952 -0.22,-1.853 0,-0.911 0.081,-1.534 0.242,-1.867 0.161,-0.334 0.394,-0.501 0.701,-0.501 0.201,0 0.376,0.071 0.524,0.211 0.149,0.143 0.257,0.367 0.328,0.672 0.07,0.306 0.105,0.784 0.105,1.431 m 1.977,0.083 c 0,-1.299 -0.219,-2.249 -0.659,-2.852 -0.439,-0.602 -1.197,-0.903 -2.271,-0.903 -0.602,0 -1.088,0.096 -1.459,0.288 -0.372,0.193 -0.676,0.474 -0.914,0.845 -0.172,0.264 -0.306,0.624 -0.403,1.081 -0.096,0.458 -0.144,0.963 -0.144,1.517 0,1.36 0.246,2.312 0.735,2.856 0.49,0.544 1.237,0.816 2.24,0.816 0.481,0 0.877,-0.06 1.185,-0.179 0.31,-0.118 0.563,-0.274 0.758,-0.463 0.195,-0.192 0.349,-0.391 0.461,-0.602 0.112,-0.209 0.203,-0.454 0.271,-0.734 0.133,-0.534 0.2,-1.091 0.2,-1.67 m 4.692,23.295 c 0,0.95 -0.081,1.589 -0.241,1.917 -0.162,0.326 -0.404,0.49 -0.726,0.49 -0.329,0 -0.566,-0.167 -0.713,-0.5 C 4.843,13.262 4.77,12.644 4.77,11.743 c 0,-0.911 0.08,-1.535 0.242,-1.868 0.16,-0.333 0.394,-0.5 0.7,-0.5 0.202,0 0.377,0.071 0.524,0.211 0.149,0.143 0.258,0.367 0.328,0.672 0.07,0.306 0.105,0.784 0.105,1.431 m 1.977,0.083 C 8.646,10.473 8.427,9.523 7.987,8.92 7.548,8.318 6.791,8.017 5.717,8.017 5.114,8.017 4.628,8.113 4.257,8.305 3.886,8.498 3.581,8.779 3.344,9.15 3.171,9.414 3.037,9.774 2.941,10.231 c -0.096,0.458 -0.144,0.963 -0.144,1.517 0,1.36 0.245,2.312 0.734,2.856 0.49,0.544 1.237,0.815 2.24,0.815 0.481,0 0.876,-0.059 1.186,-0.178 0.31,-0.118 0.562,-0.274 0.757,-0.463 0.195,-0.192 0.349,-0.391 0.462,-0.602 0.111,-0.209 0.202,-0.454 0.27,-0.734 0.134,-0.534 0.2,-1.091 0.2,-1.67 M 6.669,0 C 6.669,0.95 6.588,1.589 6.428,1.917 6.266,2.243 6.024,2.407 5.702,2.407 5.373,2.407 5.136,2.24 4.989,1.907 4.843,1.573 4.77,0.955 4.77,0.054 c 0,-0.911 0.08,-1.534 0.242,-1.867 0.16,-0.334 0.394,-0.501 0.7,-0.501 0.202,0 0.377,0.071 0.524,0.211 0.149,0.143 0.258,0.367 0.328,0.672 0.07,0.306 0.105,0.784 0.105,1.431 m 1.977,0.083 c 0,-1.299 -0.219,-2.249 -0.659,-2.852 -0.439,-0.602 -1.196,-0.902 -2.27,-0.902 -0.603,0 -1.089,0.095 -1.46,0.287 C 3.886,-3.191 3.581,-2.91 3.344,-2.539 3.171,-2.275 3.037,-1.915 2.941,-1.458 2.845,-1 2.797,-0.495 2.797,0.059 c 0,1.36 0.245,2.312 0.734,2.856 0.49,0.544 1.237,0.815 2.24,0.815 0.481,0 0.876,-0.059 1.186,-0.178 C 7.267,3.434 7.519,3.278 7.714,3.089 7.909,2.897 8.063,2.698 8.176,2.487 8.287,2.278 8.378,2.033 8.446,1.753 8.58,1.219 8.646,0.662 8.646,0.083 m -14.682,-27.01 0,7.279 -1.645,0 c -0.212,-0.449 -0.505,-0.826 -0.879,-1.133 -0.375,-0.304 -0.9,-0.568 -1.577,-0.785 l 0,-1.631 c 0.459,0.139 0.841,0.285 1.145,0.44 0.304,0.152 0.619,0.353 0.945,0.599 l 0,-4.769 2.011,0 z m 59.657,14.287 31.828,0 c 1.104,0 2,0.895 2,2 0,1.104 -0.896,2 -2,2 l -31.828,0 c -1.105,0 -2,-0.896 -2,-2 0,-1.105 0.895,-2 2,-2 m -59.657,16.37 -1.645,0 C -7.893,3.281 -8.186,2.903 -8.56,2.598 -8.935,2.292 -9.46,2.029 -10.137,1.812 l 0,-1.631 c 0.459,0.139 0.841,0.286 1.145,0.439 0.304,0.153 0.619,0.354 0.945,0.601 l 0,-4.771 2.011,0 0,7.28 z m 59.657,-27.63 31.828,0 c 1.104,0 2,0.896 2,2 0,1.105 -0.896,2 -2,2 l -31.828,0 c -1.105,0 -2,-0.895 -2,-2 0,-1.104 0.895,-2 2,-2 m 37.101,47.524 -42.375,0 c -3.859,0 -7,-3.11 -7,-6.932 l 0,-12.488 c 0.684,-0.432 4,-2.766 4,-2.766 l 0,15.254 c 0,1.617 1.346,2.932 3,2.932 l 42.375,0 c 1.654,0 3,-1.315 3,-2.932 l 0,-6.678 c 0,-1.105 0.896,-2 2,-2 1.105,0 2,0.895 2,2 l 0,6.678 c 0,3.822 -3.14,6.932 -7,6.932 M 53.621,9.881 l 31.828,0 c 1.104,0 2,0.895 2,2 0,1.104 -0.896,2 -2,2 l -31.828,0 c -1.105,0 -2,-0.896 -2,-2 0,-1.105 0.895,-2 2,-2 m -59.657,5.538 -1.645,0 C -7.893,14.97 -8.186,14.592 -8.56,14.287 -8.935,13.981 -9.46,13.718 -10.137,13.5 l 0,-1.63 c 0.459,0.139 0.841,0.286 1.145,0.439 0.304,0.153 0.619,0.354 0.945,0.601 l 0,-4.771 2.011,0 0,7.28 z M 95.722,4.078 c -1.104,0 -2,-0.896 -2,-2 l 0,-29.149 c 0,-1.616 -1.346,-2.93 -3,-2.93 l -42.375,0 c -1.654,0 -3,1.314 -3,2.93 l 0,16.57 c -1.317,-1.04 -2.345,-1.853 -2.722,-2.141 -0.233,-0.203 -0.792,-0.55 -1.278,-0.688 l 0,-13.741 c 0,-3.821 3.141,-6.93 7,-6.93 l 42.375,0 c 3.86,0 7,3.109 7,6.93 l 0,29.149 c 0,1.104 -0.895,2 -2,2 m -42.101,-5.457 31.828,0 c 1.104,0 2,0.895 2,2 0,1.104 -0.896,2 -2,2 l -31.828,0 c -1.105,0 -2,-0.896 -2,-2 0,-1.105 0.895,-2 2,-2 m -6.255,-3.246 c 0,0.48 -0.241,0.882 -0.6,1.162 -0.161,0.12 -1.562,1.245 -3.083,2.446 l -0.962,0.763 C 42,0.307 41.159,0.989 41.159,0.989 c -0.32,0.24 -0.601,0.401 -0.92,0.401 -0.282,0 -0.562,-0.121 -0.761,-0.401 -0.16,-0.24 -0.201,-0.562 -0.24,-0.922 l 0,-0.562 -5.126,0 c -0.401,0 -0.762,-0.36 -0.762,-0.802 l 0,-6.657 c 0,-0.4 0.361,-0.76 0.762,-0.76 l 5.126,0 0,-0.603 c 0.039,-0.36 0.08,-0.682 0.279,-0.923 0.16,-0.24 0.44,-0.4 0.722,-0.4 0.319,0 0.6,0.16 0.881,0.4 0.679,0.522 5.044,3.971 5.646,4.451 0.359,0.282 0.6,0.682 0.6,1.164 M 6.669,-11.689 c 0,0.95 -0.081,1.589 -0.241,1.917 -0.162,0.326 -0.404,0.49 -0.726,0.49 -0.329,0 -0.566,-0.167 -0.713,-0.5 -0.146,-0.334 -0.219,-0.952 -0.219,-1.853 0,-0.911 0.08,-1.534 0.242,-1.867 0.16,-0.334 0.394,-0.501 0.7,-0.501 0.202,0 0.377,0.071 0.524,0.211 0.149,0.143 0.258,0.367 0.328,0.672 0.07,0.306 0.105,0.784 0.105,1.431 m 1.977,0.083 c 0,-1.299 -0.219,-2.249 -0.659,-2.852 -0.439,-0.602 -1.196,-0.903 -2.27,-0.903 -0.603,0 -1.089,0.096 -1.46,0.288 -0.371,0.193 -0.676,0.474 -0.913,0.845 -0.173,0.264 -0.307,0.624 -0.403,1.081 -0.096,0.458 -0.144,0.963 -0.144,1.517 0,1.36 0.245,2.312 0.734,2.856 0.49,0.544 1.237,0.816 2.24,0.816 0.481,0 0.876,-0.06 1.186,-0.179 0.31,-0.118 0.562,-0.274 0.757,-0.463 0.195,-0.192 0.349,-0.391 0.462,-0.602 0.111,-0.209 0.202,-0.454 0.27,-0.734 0.134,-0.534 0.2,-1.091 0.2,-1.67 m 11.363,-0.083 c 0,0.95 -0.081,1.589 -0.241,1.917 -0.163,0.326 -0.404,0.49 -0.726,0.49 -0.329,0 -0.566,-0.167 -0.713,-0.5 -0.146,-0.334 -0.22,-0.952 -0.22,-1.853 0,-0.911 0.08,-1.534 0.243,-1.867 0.16,-0.334 0.394,-0.501 0.7,-0.501 0.202,0 0.377,0.071 0.524,0.211 0.149,0.143 0.258,0.367 0.328,0.672 0.07,0.306 0.105,0.784 0.105,1.431 m 1.977,0.083 c 0,-1.299 -0.219,-2.249 -0.659,-2.852 -0.439,-0.602 -1.196,-0.903 -2.27,-0.903 -0.603,0 -1.089,0.096 -1.46,0.288 -0.371,0.193 -0.676,0.474 -0.913,0.845 -0.173,0.264 -0.307,0.624 -0.403,1.081 -0.096,0.458 -0.144,0.963 -0.144,1.517 0,1.36 0.245,2.312 0.734,2.856 0.49,0.544 1.236,0.816 2.239,0.816 0.482,0 0.877,-0.06 1.187,-0.179 0.309,-0.118 0.561,-0.274 0.757,-0.463 0.195,-0.192 0.348,-0.391 0.462,-0.602 0.111,-0.209 0.202,-0.454 0.27,-0.734 0.134,-0.534 0.2,-1.091 0.2,-1.67 M 20.009,0 c 0,0.95 -0.081,1.589 -0.241,1.917 -0.163,0.326 -0.404,0.49 -0.726,0.49 -0.329,0 -0.566,-0.167 -0.713,-0.5 -0.146,-0.334 -0.22,-0.952 -0.22,-1.853 0,-0.911 0.08,-1.534 0.243,-1.867 0.16,-0.334 0.394,-0.501 0.7,-0.501 0.202,0 0.377,0.071 0.524,0.211 0.149,0.143 0.258,0.367 0.328,0.672 0.07,0.306 0.105,0.784 0.105,1.431 m 1.977,0.083 c 0,-1.299 -0.219,-2.249 -0.659,-2.852 -0.439,-0.602 -1.196,-0.902 -2.27,-0.902 -0.603,0 -1.089,0.095 -1.46,0.287 -0.371,0.193 -0.676,0.474 -0.913,0.845 -0.173,0.264 -0.307,0.624 -0.403,1.081 -0.096,0.458 -0.144,0.963 -0.144,1.517 0,1.36 0.245,2.312 0.734,2.856 0.49,0.544 1.236,0.815 2.239,0.815 0.482,0 0.877,-0.059 1.187,-0.178 0.309,-0.118 0.561,-0.274 0.757,-0.463 0.195,-0.192 0.348,-0.391 0.462,-0.602 0.111,-0.209 0.202,-0.454 0.27,-0.734 0.134,-0.534 0.2,-1.091 0.2,-1.67 m 4.693,11.606 c 0,0.95 -0.081,1.589 -0.242,1.917 -0.162,0.326 -0.403,0.49 -0.725,0.49 -0.329,0 -0.566,-0.167 -0.713,-0.5 -0.146,-0.334 -0.22,-0.952 -0.22,-1.853 0,-0.911 0.08,-1.535 0.242,-1.868 0.161,-0.333 0.395,-0.5 0.701,-0.5 0.202,0 0.377,0.071 0.524,0.211 0.149,0.143 0.258,0.367 0.328,0.672 0.07,0.306 0.105,0.784 0.105,1.431 m 1.977,0.083 c 0,-1.299 -0.219,-2.249 -0.659,-2.852 -0.439,-0.602 -1.196,-0.903 -2.27,-0.903 -0.603,0 -1.089,0.096 -1.46,0.288 -0.371,0.193 -0.676,0.474 -0.913,0.845 -0.173,0.264 -0.307,0.624 -0.403,1.081 -0.097,0.458 -0.144,0.963 -0.144,1.517 0,1.36 0.245,2.312 0.734,2.856 0.49,0.544 1.236,0.815 2.239,0.815 0.482,0 0.877,-0.059 1.187,-0.178 0.309,-0.118 0.561,-0.274 0.757,-0.463 0.195,-0.192 0.348,-0.391 0.462,-0.602 0.111,-0.209 0.202,-0.454 0.27,-0.734 0.134,-0.534 0.2,-1.091 0.2,-1.67 m -8.647,-35.15 c 0,0.951 -0.081,1.589 -0.241,1.918 -0.163,0.326 -0.404,0.49 -0.726,0.49 -0.329,0 -0.566,-0.168 -0.713,-0.5 -0.146,-0.334 -0.22,-0.953 -0.22,-1.854 0,-0.912 0.08,-1.535 0.243,-1.867 0.16,-0.334 0.394,-0.502 0.7,-0.502 0.202,0 0.377,0.072 0.524,0.213 0.149,0.143 0.258,0.365 0.328,0.672 0.07,0.305 0.105,0.783 0.105,1.43 m 1.507,2.488 c 0.111,-0.209 0.202,-0.455 0.27,-0.735 0.134,-0.535 0.2,-1.091 0.2,-1.669 0,-1.299 -0.219,-2.25 -0.659,-2.852 -0.439,-0.604 -1.196,-0.904 -2.27,-0.904 -0.603,0 -1.089,0.095 -1.46,0.289 -0.371,0.191 -0.676,0.472 -0.913,0.844 -0.173,0.263 -0.307,0.625 -0.403,1.082 -0.096,0.457 -0.144,0.962 -0.144,1.515 0,1.362 0.245,2.313 0.734,2.858 0.49,0.543 1.236,0.814 2.239,0.814 0.482,0 0.877,-0.059 1.187,-0.178 0.309,-0.119 0.561,-0.273 0.757,-0.463 0.195,-0.191 0.348,-0.39 0.462,-0.601 m 12.196,-6.181 c 0,-1.616 -1.346,-2.93 -3,-2.93 l -42.375,0 c -1.654,0 -3,1.314 -3,2.93 l 0,43.763 c 0,1.617 1.346,2.932 3,2.932 l 42.375,0 c 1.654,0 3,-1.315 3,-2.932 l 0,-14.728 4,0 0,14.728 c 0,3.822 -3.14,6.932 -7,6.932 l -42.375,0 c -3.86,0 -7,-3.11 -7,-6.932 l 0,-43.763 c 0,-3.821 3.14,-6.93 7,-6.93 l 42.375,0 c 3.86,0 7,3.109 7,6.93 l 0,16.07 -4,0 0,-16.07 z m -7.033,15.382 c 0,0.95 -0.081,1.589 -0.242,1.917 -0.162,0.326 -0.403,0.49 -0.725,0.49 -0.329,0 -0.566,-0.167 -0.713,-0.5 -0.146,-0.334 -0.22,-0.952 -0.22,-1.853 0,-0.911 0.08,-1.534 0.242,-1.867 0.161,-0.334 0.395,-0.501 0.701,-0.501 0.202,0 0.377,0.071 0.524,0.211 0.149,0.143 0.258,0.367 0.328,0.672 0.07,0.306 0.105,0.784 0.105,1.431 m 1.977,0.083 c 0,-1.299 -0.219,-2.249 -0.659,-2.852 -0.439,-0.602 -1.196,-0.903 -2.27,-0.903 -0.603,0 -1.089,0.096 -1.46,0.288 -0.371,0.193 -0.676,0.474 -0.913,0.845 -0.173,0.264 -0.307,0.624 -0.403,1.081 -0.097,0.458 -0.144,0.963 -0.144,1.517 0,1.36 0.245,2.312 0.734,2.856 0.49,0.544 1.236,0.816 2.239,0.816 0.482,0 0.877,-0.06 1.187,-0.179 0.309,-0.118 0.561,-0.274 0.757,-0.463 0.195,-0.192 0.348,-0.391 0.462,-0.602 0.111,-0.209 0.202,-0.454 0.27,-0.734 0.134,-0.534 0.2,-1.091 0.2,-1.67 m -1.977,-11.772 c 0,0.951 -0.081,1.589 -0.242,1.918 -0.162,0.326 -0.403,0.49 -0.725,0.49 -0.329,0 -0.566,-0.168 -0.713,-0.5 -0.146,-0.334 -0.22,-0.953 -0.22,-1.854 0,-0.912 0.08,-1.535 0.242,-1.867 0.161,-0.334 0.395,-0.502 0.701,-0.502 0.202,0 0.377,0.072 0.524,0.213 0.149,0.143 0.258,0.365 0.328,0.672 0.07,0.305 0.105,0.783 0.105,1.43 m 1.507,2.488 c 0.111,-0.209 0.202,-0.455 0.27,-0.735 0.134,-0.535 0.2,-1.091 0.2,-1.669 0,-1.299 -0.219,-2.25 -0.659,-2.852 -0.439,-0.604 -1.196,-0.904 -2.27,-0.904 -0.603,0 -1.089,0.095 -1.46,0.289 -0.371,0.191 -0.676,0.472 -0.913,0.844 -0.173,0.263 -0.307,0.625 -0.403,1.082 -0.097,0.457 -0.144,0.962 -0.144,1.515 0,1.362 0.245,2.313 0.734,2.858 0.49,0.543 1.236,0.814 2.239,0.814 0.482,0 0.877,-0.059 1.187,-0.178 0.309,-0.119 0.561,-0.273 0.757,-0.463 0.195,-0.191 0.348,-0.39 0.462,-0.601 M 26.679,0 c 0,0.95 -0.081,1.589 -0.242,1.917 -0.162,0.326 -0.403,0.49 -0.725,0.49 -0.329,0 -0.566,-0.167 -0.713,-0.5 -0.146,-0.334 -0.22,-0.952 -0.22,-1.853 0,-0.911 0.08,-1.534 0.242,-1.867 0.161,-0.334 0.395,-0.501 0.701,-0.501 0.202,0 0.377,0.071 0.524,0.211 0.149,0.143 0.258,0.367 0.328,0.672 0.07,0.306 0.105,0.784 0.105,1.431 m 1.977,0.083 c 0,-1.299 -0.219,-2.249 -0.659,-2.852 -0.439,-0.602 -1.196,-0.902 -2.27,-0.902 -0.603,0 -1.089,0.095 -1.46,0.287 -0.371,0.193 -0.676,0.474 -0.913,0.845 -0.173,0.264 -0.307,0.624 -0.403,1.081 -0.097,0.458 -0.144,0.963 -0.144,1.517 0,1.36 0.245,2.312 0.734,2.856 0.49,0.544 1.236,0.815 2.239,0.815 0.482,0 0.877,-0.059 1.187,-0.178 0.309,-0.118 0.561,-0.274 0.757,-0.463 0.195,-0.192 0.348,-0.391 0.462,-0.602 0.111,-0.209 0.202,-0.454 0.27,-0.734 0.134,-0.534 0.2,-1.091 0.2,-1.67 m -14.682,3.647 -1.646,0 C 12.116,3.281 11.823,2.903 11.449,2.598 11.075,2.292 10.549,2.029 9.872,1.812 l 0,-1.631 c 0.459,0.139 0.841,0.286 1.146,0.439 0.303,0.153 0.619,0.354 0.944,0.601 l 0,-4.771 2.012,0 0,7.28 z m 0,-11.688 -1.646,0 c -0.212,-0.45 -0.505,-0.828 -0.879,-1.133 -0.374,-0.306 -0.9,-0.569 -1.577,-0.786 l 0,-1.631 c 0.459,0.139 0.841,0.286 1.146,0.439 0.303,0.153 0.619,0.354 0.944,0.601 l 0,-4.771 2.012,0 0,7.281 z m 6.035,19.647 c 0,0.95 -0.081,1.589 -0.241,1.917 -0.163,0.326 -0.404,0.49 -0.726,0.49 -0.329,0 -0.566,-0.167 -0.713,-0.5 -0.146,-0.334 -0.22,-0.952 -0.22,-1.853 0,-0.911 0.08,-1.535 0.243,-1.868 0.16,-0.333 0.394,-0.5 0.7,-0.5 0.202,0 0.377,0.071 0.524,0.211 0.149,0.143 0.258,0.367 0.328,0.672 0.07,0.306 0.105,0.784 0.105,1.431 m 1.977,0.083 c 0,-1.299 -0.219,-2.249 -0.659,-2.852 -0.439,-0.602 -1.196,-0.903 -2.27,-0.903 -0.603,0 -1.089,0.096 -1.46,0.288 -0.371,0.193 -0.676,0.474 -0.913,0.845 -0.173,0.264 -0.307,0.624 -0.403,1.081 -0.096,0.458 -0.144,0.963 -0.144,1.517 0,1.36 0.245,2.312 0.734,2.856 0.49,0.544 1.236,0.815 2.239,0.815 0.482,0 0.877,-0.059 1.187,-0.178 0.309,-0.118 0.561,-0.274 0.757,-0.463 0.195,-0.192 0.348,-0.391 0.462,-0.602 0.111,-0.209 0.202,-0.454 0.27,-0.734 0.134,-0.534 0.2,-1.091 0.2,-1.67 m -10.024,-38.699 0,4.769 c -0.325,-0.246 -0.641,-0.447 -0.944,-0.599 -0.305,-0.155 -0.687,-0.301 -1.146,-0.44 l 0,1.631 c 0.677,0.217 1.203,0.481 1.577,0.785 0.374,0.307 0.667,0.684 0.879,1.133 l 1.646,0 0,-7.279 -2.012,0 z"
             style="fill:#cccccc;fill-opacity:1;fill-rule:nonzero;stroke:none"
             id="path9058"
             inkscape:connector-curvature="0" />
        </g>
      </g>
    </g>
    <path
       inkscape:connector-curvature="0"
       id="path6340"
       style="fill:#cccccc;fill-opacity:1;fill-rule:nonzero;stroke:none;opacity:0.5"
       d="m 706.71455,898.40892 c 0,-9.0575 -7.36375,-16.4275 -16.41375,-16.4275 -9.05375,0 -16.42,7.37 -16.42,16.4275 0,9.0538 7.36625,16.4213 16.42,16.4213 9.05,0 16.41375,-7.3675 16.41375,-16.4213 m -39.9575,-80.765 c 0,-1.4737 -1.735,-2.7187 -3.7875,-2.7187 l -16.27625,0 c -2.0525,0 -3.78625,1.245 -3.78625,2.7187 l 0,25.5925 c 0,1.475 1.73375,2.7225 3.78625,2.7225 l 16.27625,0 c 2.0525,0 3.7875,-1.2475 3.7875,-2.7225 l 0,-25.5925 z m 44.9575,80.765 c 0,11.8113 -9.60625,21.4213 -21.41375,21.4213 -2.16,0 -4.24375,-0.3288 -6.2125,-0.9263 -9.235,7 -20.63125,10.85 -32.26125,10.85 -1.38125,0 -2.5,-1.1187 -2.5,-2.5 0,-1.38 1.11875,-2.5 2.5,-2.5 9.7925,0 19.06625,-2.8437 27.05375,-8.2537 -5.99625,-3.8 -10,-10.48 -10,-18.0913 0,-11.815 9.61,-21.4275 21.42,-21.4275 3.55,0 6.89375,0.8825 9.84375,2.4188 0.065,-1.0225 0.11125,-2.0488 0.11125,-3.0713 0,-19.0725 -11.31375,-36.3812 -28.49875,-44.1525 l 0,11.06 c 0,4.2575 -3.94125,7.7225 -8.7875,7.7225 l -16.27625,0 c -4.845,0 -8.78625,-3.465 -8.78625,-7.7225 l 0,-25.5925 c 0,-4.2562 3.94125,-7.7187 8.78625,-7.7187 l 16.27625,0 c 4.84625,0 8.7875,3.4625 8.7875,7.7187 l 0,9.0988 c 20.1075,8.0912 33.49875,27.7925 33.49875,49.5862 0,2.1375 -0.15875,4.2788 -0.41125,6.3975 4.21375,3.9163 6.87,9.4875 6.87,15.6825 m -86.87625,-0.01 -16.985,-16.9837 -16.98625,16.9837 16.98625,16.9913 16.985,-16.9913 z m 3.81625,3.2563 -17.5425,17.5475 c -0.87625,0.8725 -2.0325,1.3512 -3.26125,1.3512 -1.23375,0 -2.39125,-0.4812 -3.26125,-1.3562 l -17.5325,-17.5375 c -1.795,-1.795 -1.79625,-4.7213 -0.002,-6.52 l 17.54,-17.5375 c 1.7225,-1.7363 4.76875,-1.7463 6.51625,-10e-4 l 17.53625,17.5362 c 1.7875,1.805 1.78625,4.7238 0.007,6.5175 m 12.83375,21.5425 c -1.44,0 -2.61,1.1675 -2.61,2.6075 0,1.435 1.17,2.6 2.61,2.6 1.43625,0 2.6025,-1.165 2.6025,-2.6 0,-1.44 -1.16625,-2.6075 -2.6025,-2.6075 m -9.96875,-3.3937 c -1.44125,0 -2.6075,1.17 -2.6075,2.6125 0,1.4312 1.16625,2.6 2.6075,2.6 1.4375,0 2.6025,-1.1688 2.6025,-2.6 0,-1.4425 -1.165,-2.6125 -2.6025,-2.6125 m -9.42,-5.2075 c -1.44125,0 -2.60625,1.165 -2.60625,2.605 0,1.44 1.165,2.6025 2.60625,2.6025 1.43875,0 2.6025,-1.1625 2.6025,-2.6025 0,-1.44 -1.16375,-2.605 -2.6025,-2.605 m -20.59625,-41.18 c 1.4375,0 2.6025,-1.1663 2.6025,-2.6013 0,-1.44 -1.165,-2.6087 -2.6025,-2.6087 -1.44,0 -2.6075,1.1687 -2.6075,2.6087 0,1.435 1.1675,2.6013 2.6075,2.6013 m 2.1675,-10.3388 c 1.43625,0 2.605,-1.1625 2.605,-2.6037 0,-1.4375 -1.16875,-2.6025 -2.605,-2.6025 -1.44,0 -2.605,1.165 -2.605,2.6025 0,1.4412 1.165,2.6037 2.605,2.6037 m 4.1825,-9.7137 c 1.43625,0 2.6025,-1.1688 2.6025,-2.605 0,-1.4413 -1.16625,-2.6063 -2.6025,-2.6063 -1.44,0 -2.6075,1.165 -2.6075,2.6063 0,1.4362 1.1675,2.605 2.6075,2.605 m 6.41625,-8.6538 c 1.435,0 2.605,-1.1625 2.605,-2.6012 0,-1.4388 -1.17,-2.6075 -2.605,-2.6075 -1.44,0 -2.6075,1.1687 -2.6075,2.6075 0,1.4387 1.1675,2.6012 2.6075,2.6012 m 7.83,-6.8862 c 1.43625,0 2.6025,-1.1663 2.6025,-2.605 0,-1.4375 -1.16625,-2.6063 -2.6025,-2.6063 -1.44125,0 -2.60625,1.1688 -2.60625,2.6063 0,1.4387 1.165,2.605 2.60625,2.605 m 6.69625,-8.175 c 0,-1.4413 1.16625,-2.605 2.60375,-2.605 1.43875,0 2.605,1.1637 2.605,2.605 0,1.4387 -1.16625,2.6025 -2.605,2.6025 -1.4375,0 -2.60375,-1.1638 -2.60375,-2.6025" />
    <g
       transform="matrix(1.25,0,0,-1.25,681.67385,774.46042)"
       inkscape:label="257.ai_original"
       id="g6386"
       style="fill:#cccccc;opacity:0.5">
      <g
         id="g6388"
         style="fill:#cccccc">
        <g
           clip-path="url(#clipPath6392)"
           id="g6390"
           style="fill:#cccccc">
          <g
             transform="translate(156.8594,129.084)"
             id="g6396"
             style="fill:#cccccc">
            <path
               inkscape:connector-curvature="0"
               id="path6398"
               style="fill:#cccccc;fill-opacity:1;fill-rule:nonzero;stroke:none"
               d="m 0,0 c -0.608,0.923 -1.849,1.178 -2.771,0.569 -0.921,-0.608 -1.176,-1.848 -0.569,-2.77 4.029,-6.113 6.159,-13.231 6.159,-20.583 0,-20.647 -16.797,-37.445 -37.443,-37.445 -13.006,0 -25.179,7.088 -32.564,18.961 -7.684,12.354 -13.405,14.362 -24.102,14.368 l -0.044,0 c -0.933,0 -1.71,-0.642 -1.931,-1.506 -0.006,-0.021 -0.014,-0.039 -0.019,-0.061 -0.018,-0.08 -0.024,-0.164 -0.031,-0.247 -0.005,-0.049 -0.018,-0.095 -0.018,-0.144 l -0.079,-3.773 c 0,-0.012 0,-0.023 0,-0.034 -0.491,0.513 -1.741,1.605 -3.876,3.463 -2.244,1.954 -5.037,4.385 -5.944,5.352 -0.643,0.686 -0.697,0.975 -0.7,0.975 0.003,0.015 0.074,0.297 0.76,0.941 1.036,0.972 3.72,3.641 6.088,5.995 1.678,1.668 3.266,3.246 3.75,3.705 0,-0.038 -10e-4,-0.079 -0.003,-0.12 -0.093,-2.893 -0.049,-3.756 -0.039,-3.9 0.003,-0.047 0.016,-0.09 0.022,-0.136 0.01,-0.066 0.018,-0.131 0.034,-0.195 0.016,-0.067 0.038,-0.131 0.06,-0.196 0.021,-0.057 0.04,-0.115 0.066,-0.169 0.03,-0.068 0.067,-0.131 0.105,-0.195 0.027,-0.044 0.053,-0.089 0.083,-0.132 0.047,-0.066 0.099,-0.126 0.153,-0.185 0.031,-0.034 0.06,-0.068 0.093,-0.1 0.062,-0.058 0.127,-0.11 0.196,-0.161 0.034,-0.025 0.067,-0.051 0.103,-0.074 0.07,-0.045 0.144,-0.083 0.22,-0.12 0.042,-0.02 0.084,-0.041 0.128,-0.058 0.069,-0.027 0.14,-0.047 0.213,-0.067 0.059,-0.016 0.119,-0.031 0.181,-0.042 0.053,-0.009 0.108,-0.012 0.162,-0.017 0.059,-0.004 0.116,-0.017 0.176,-0.017 15.175,0 23.833,-5.154 31.979,-19.071 6.361,-10.095 13.54,-14.212 24.778,-14.212 15.779,0 28.616,12.838 28.616,28.617 0,15.78 -12.837,28.618 -28.616,28.618 -12.764,0 -23.814,-8.38 -27.405,-20.34 -0.886,0.671 -1.936,1.425 -3.038,2.131 -1.643,1.053 -3.443,1.857 -4.763,2.378 5.357,14.826 19.273,24.657 35.206,24.657 10.028,0 19.447,-3.912 26.523,-11.015 0.781,-0.783 2.048,-0.784 2.829,-0.005 0.783,0.779 0.785,2.046 0.005,2.828 -7.832,7.862 -18.257,12.192 -29.357,12.192 -18.342,0 -34.27,-11.772 -39.634,-29.294 -0.323,-1.055 0.271,-2.174 1.326,-2.498 0.031,-0.01 3.171,-0.985 5.707,-2.611 2.65,-1.697 5.072,-3.785 5.096,-3.806 0.545,-0.471 1.299,-0.614 1.975,-0.374 0.677,0.24 1.175,0.824 1.302,1.531 2.11,11.72 12.299,20.226 24.228,20.226 13.573,0 24.616,-11.043 24.616,-24.618 0,-13.574 -11.043,-24.617 -24.616,-24.617 -9.925,0 -15.723,3.345 -21.36,12.288 -8.478,14.488 -17.97,20.48 -33.399,20.949 0.008,0.453 0.023,1.007 0.044,1.682 0.093,2.892 -1.085,4.042 -2.091,4.496 -0.812,0.368 -2.49,0.688 -4.602,-1.294 -0.476,-0.447 -2.05,-2.011 -3.872,-3.823 -2.348,-2.335 -5.011,-4.981 -6.005,-5.914 -2.624,-2.464 -2.703,-4.94 -0.242,-7.568 1.047,-1.116 3.804,-3.517 6.237,-5.634 1.531,-1.333 3.266,-2.843 3.618,-3.218 1.334,-1.421 2.56,-1.779 3.455,-1.779 0.516,0 0.923,0.119 1.176,0.221 0.858,0.346 2.292,1.38 2.252,4.348 l 0.037,1.721 c 7.786,-0.21 12.29,-2.002 18.792,-12.455 8.12,-13.054 21.563,-20.848 35.96,-20.848 22.852,0 41.443,18.592 41.443,41.445 C 6.819,-14.647 4.461,-6.768 0,0" />
          </g>
        </g>
      </g>
    </g>
    <path
       style="color:#000000;font-style:normal;font-variant:normal;font-weight:normal;font-stretch:normal;font-size:medium;line-height:normal;font-family:sans-serif;text-indent:0;text-align:start;text-decoration:none;text-decoration-line:none;text-decoration-style:solid;text-decoration-color:#000000;letter-spacing:normal;word-spacing:normal;text-transform:none;direction:ltr;block-progression:tb;writing-mode:lr-tb;baseline-shift:baseline;text-anchor:start;white-space:normal;clip-rule:nonzero;display:inline;overflow:visible;visibility:visible;opacity:1;isolation:auto;mix-blend-mode:normal;color-interpolation:sRGB;color-interpolation-filters:linearRGB;solid-color:#000000;solid-opacity:1;fill:#77f112;fill-opacity:1;fill-rule:evenodd;stroke:none;stroke-width:3;stroke-linecap:round;stroke-linejoin:round;stroke-miterlimit:4;stroke-dasharray:none;stroke-dashoffset:0;stroke-opacity:1;color-rendering:auto;image-rendering:auto;shape-rendering:auto;text-rendering:auto;enable-background:accumulate"
       d="m 342.17462,577.4017 -4.21631,7.4769 a 1.50015,1.50015 0 0 0 -0.64858,0.93002 c -0.0298,0.12419 -0.0566,0.24867 -0.0861,0.37288 l -16.50458,29.26902 12.3835,-7.59675 c -4.61108,32.22219 -2.67262,65.12636 5.7919,96.7164 a 1.50015,1.50015 0 1 0 2.89778,-0.77646 c -8.37763,-31.26573 -10.28132,-63.83429 -5.68943,-95.72273 l 7.95627,12.97062 -1.88444,-43.6399 z"
       id="path5689-1"
       inkscape:connector-curvature="0" />
    <path
       style="color:#000000;font-style:normal;font-variant:normal;font-weight:normal;font-stretch:normal;font-size:medium;line-height:normal;font-family:sans-serif;text-indent:0;text-align:start;text-decoration:none;text-decoration-line:none;text-decoration-style:solid;text-decoration-color:#000000;letter-spacing:normal;word-spacing:normal;text-transform:none;direction:ltr;block-progression:tb;writing-mode:lr-tb;baseline-shift:baseline;text-anchor:start;white-space:normal;clip-rule:nonzero;display:inline;overflow:visible;visibility:visible;opacity:1;isolation:auto;mix-blend-mode:normal;color-interpolation:sRGB;color-interpolation-filters:linearRGB;solid-color:#000000;solid-opacity:1;fill:#77f112;fill-opacity:1;fill-rule:evenodd;stroke:none;stroke-width:3;stroke-linecap:round;stroke-linejoin:round;stroke-miterlimit:4;stroke-dasharray:none;stroke-dashoffset:0;stroke-opacity:1;color-rendering:auto;image-rendering:auto;shape-rendering:auto;text-rendering:auto;enable-background:accumulate"
       d="m 523.07227,106.83203 11.01757,9.4707 c -32.09053,5.45249 -62.82991,17.3506 -90.32422,35.06055 a 1.50015,1.50015 0 1 0 1.625,2.52149 c 27.21203,-17.52815 57.64134,-29.2894 89.40821,-34.65821 l -9.91992,11.53906 40.97851,-15.12695 -8.4082,-1.73047 a 1.50015,1.50015 0 0 0 -1.08399,-0.33203 c -0.12736,0.01 -0.25357,0.0215 -0.38085,0.0312 l -32.91211,-6.77539 z m 42,18.51758 a 1.50015,1.50015 0 0 0 -0.15039,0.008 c -32.55251,3.14869 -64.04739,12.87045 -92.60743,28.48633 l 2.77344,-14.26172 -21.625,25.71875 c -0.10595,0.0712 -0.21222,0.14179 -0.31836,0.21289 a 1.50015,1.50015 0 0 0 -0.64453,0.9336 l -5.52344,6.57031 41.5293,-13.53711 -14.93555,-2.90235 c 28.25421,-15.48089 59.42232,-25.11802 91.64063,-28.23437 a 1.50015,1.50015 0 0 0 -0.13867,-2.99414 z"
       transform="translate(0,284.36214)"
       id="path5689-1-5"
       inkscape:connector-curvature="0" />
    <path
       inkscape:connector-curvature="0"
       style="color:#000000;font-style:normal;font-variant:normal;font-weight:normal;font-stretch:normal;font-size:medium;line-height:normal;font-family:sans-serif;text-indent:0;text-align:start;text-decoration:none;text-decoration-line:none;text-decoration-style:solid;text-decoration-color:#000000;letter-spacing:normal;word-spacing:normal;text-transform:none;direction:ltr;block-progression:tb;writing-mode:lr-tb;baseline-shift:baseline;text-anchor:start;white-space:normal;clip-rule:nonzero;display:inline;overflow:visible;visibility:visible;opacity:1;isolation:auto;mix-blend-mode:normal;color-interpolation:sRGB;color-interpolation-filters:linearRGB;solid-color:#000000;solid-opacity:1;fill:#77f112;fill-opacity:1;fill-rule:evenodd;stroke:none;stroke-width:3;stroke-linecap:round;stroke-linejoin:round;stroke-miterlimit:4;stroke-dasharray:none;stroke-dashoffset:0;stroke-opacity:1;color-rendering:auto;image-rendering:auto;shape-rendering:auto;text-rendering:auto;enable-background:accumulate"
       d="m 804.69292,528.54298 -6.41026,13.03798 C 784.96858,511.878 765.75253,485.09706 741.72233,462.91307 a 1.50015,1.50015 0 1 0 -2.03427,2.20462 c 23.78351,21.95621 42.78942,48.47122 55.94144,77.8818 l -13.65536,-6.71459 24.90585,35.88538 -0.43002,-8.57363 a 1.50015,1.50015 0 0 0 0.05,-1.1326 c -0.0414,-0.1208 -0.0842,-0.24013 -0.1256,-0.36091 l -1.68146,-33.56017 z m -7.41112,45.29873 a 1.50015,1.50015 0 0 0 -0.0454,-0.1436 C 786.03704,542.971 768.73883,514.91371 746.46914,491.1736 l 14.50185,-0.88596 -30.31421,-14.49629 c -0.0954,-0.0847 -0.19042,-0.16995 -0.28584,-0.2549 a 1.50015,1.50015 0 0 0 -1.06524,-0.39024 l -7.74405,-3.70231 23.50458,36.81672 -0.92993,-15.18649 c 22.06242,23.47782 39.19687,51.23994 50.28122,81.65159 a 1.50015,1.50015 0 0 0 2.86403,-0.88396 z"
       id="path5689-1-5-3" />
    <path
       inkscape:connector-curvature="0"
       style="color:#000000;font-style:normal;font-variant:normal;font-weight:normal;font-stretch:normal;font-size:medium;line-height:normal;font-family:sans-serif;text-indent:0;text-align:start;text-decoration:none;text-decoration-line:none;text-decoration-style:solid;text-decoration-color:#000000;letter-spacing:normal;word-spacing:normal;text-transform:none;direction:ltr;block-progression:tb;writing-mode:lr-tb;baseline-shift:baseline;text-anchor:start;white-space:normal;clip-rule:nonzero;display:inline;overflow:visible;visibility:visible;opacity:1;isolation:auto;mix-blend-mode:normal;color-interpolation:sRGB;color-interpolation-filters:linearRGB;solid-color:#000000;solid-opacity:1;fill:#77f112;fill-opacity:1;fill-rule:evenodd;stroke:none;stroke-width:3;stroke-linecap:round;stroke-linejoin:round;stroke-miterlimit:4;stroke-dasharray:none;stroke-dashoffset:0;stroke-opacity:1;color-rendering:auto;image-rendering:auto;shape-rendering:auto;text-rendering:auto;enable-background:accumulate"
       d="m 769.16273,808.78489 -14.50712,-0.78956 c 22.11189,-23.88712 39.22301,-52.05954 50.21855,-82.86016 a 1.50015,1.50015 0 1 0 -2.82538,-1.00787 c -10.88262,30.48441 -27.8314,58.35929 -49.73779,81.98275 l 0.82768,-15.19439 -23.25846,36.9744 7.71971,-3.75475 a 1.50015,1.50015 0 0 0 1.06165,-0.39773 c 0.0949,-0.0854 0.18794,-0.17155 0.28284,-0.25697 l 30.21833,-14.69573 z m -44.58084,10.92919 a 1.50015,1.50015 0 0 0 0.11433,-0.0981 c 23.8827,-22.34273 42.91953,-49.25069 56.03653,-79.04123 l 6.49688,12.99535 1.4604,-33.57024 c 0.0406,-0.12096 0.0818,-0.24178 0.12253,-0.36285 a 1.50015,1.50015 0 0 0 -0.0583,-1.13298 l 0.37223,-8.57548 -24.66434,36.05006 13.60803,-6.80557 c -12.95688,29.49707 -31.78631,56.13872 -55.42383,78.25204 a 1.50015,1.50015 0 0 0 1.9354,2.28872 z"
       id="path5689-1-5-3-4" />
    <path
       inkscape:connector-curvature="0"
       style="color:#000000;font-style:normal;font-variant:normal;font-weight:normal;font-stretch:normal;font-size:medium;line-height:normal;font-family:sans-serif;text-indent:0;text-align:start;text-decoration:none;text-decoration-line:none;text-decoration-style:solid;text-decoration-color:#000000;letter-spacing:normal;word-spacing:normal;text-transform:none;direction:ltr;block-progression:tb;writing-mode:lr-tb;baseline-shift:baseline;text-anchor:start;white-space:normal;clip-rule:nonzero;display:inline;overflow:visible;visibility:visible;opacity:1;isolation:auto;mix-blend-mode:normal;color-interpolation:sRGB;color-interpolation-filters:linearRGB;solid-color:#000000;solid-opacity:1;fill:#77f112;fill-opacity:1;fill-rule:evenodd;stroke:none;stroke-width:3;stroke-linecap:round;stroke-linejoin:round;stroke-miterlimit:4;stroke-dasharray:none;stroke-dashoffset:0;stroke-opacity:1;color-rendering:auto;image-rendering:auto;shape-rendering:auto;text-rendering:auto;enable-background:accumulate"
       d="m 467.09148,873.62414 -2.8755,-14.24119 c 28.67088,15.41138 60.23531,24.90678 92.80948,27.8228 a 1.50015,1.50015 0 1 0 0.26676,-2.98787 c -32.23975,-2.88606 -63.47543,-12.29895 -91.83953,-27.57756 l 14.91604,-3.01104 -41.62721,-13.23771 5.5715,6.53073 a 1.50015,1.50015 0 0 0 0.65138,0.9279 c 0.10647,0.0705 0.21321,0.13889 0.31971,0.20932 l 21.80738,25.56463 z m -21.76485,-40.41275 a 1.50015,1.50015 0 0 0 0.12365,0.086 c 27.62019,17.51303 58.44375,29.1898 90.57244,34.41285 l -10.94963,9.54957 32.86286,-7.00901 c 0.12728,0.009 0.25457,0.0185 0.38199,0.0275 a 1.50015,1.50015 0 0 0 1.0821,-0.3407 l 8.39458,-1.79124 -41.08517,-14.83053 10.0021,11.46524 c -31.80441,-5.14163 -62.31815,-16.68444 -89.65475,-34.0177 a 1.50015,1.50015 0 0 0 -1.72992,2.44774 z"
       id="path5689-1-5-3-4-9" />
    <path
       inkscape:connector-curvature="0"
       style="color:#000000;font-style:normal;font-variant:normal;font-weight:normal;font-stretch:normal;font-size:medium;line-height:normal;font-family:sans-serif;text-indent:0;text-align:start;text-decoration:none;text-decoration-line:none;text-decoration-style:solid;text-decoration-color:#000000;letter-spacing:normal;word-spacing:normal;text-transform:none;direction:ltr;block-progression:tb;writing-mode:lr-tb;baseline-shift:baseline;text-anchor:start;white-space:normal;clip-rule:nonzero;display:inline;overflow:visible;visibility:visible;opacity:1;isolation:auto;mix-blend-mode:normal;color-interpolation:sRGB;color-interpolation-filters:linearRGB;solid-color:#000000;solid-opacity:1;fill:#77f112;fill-opacity:1;fill-rule:evenodd;stroke:none;stroke-width:3;stroke-linecap:round;stroke-linejoin:round;stroke-miterlimit:4;stroke-dasharray:none;stroke-dashoffset:0;stroke-opacity:1;color-rendering:auto;image-rendering:auto;shape-rendering:auto;text-rendering:auto;enable-background:accumulate"
       d="M 593.38615,671.21336 586.916,690.38287 C 563.11425,651.80642 531.69787,618.34115 494.47429,592.1008 a 2.0890475,2.0890475 0 1 0 -2.40606,3.41483 c 36.84144,25.97092 67.9192,59.10742 91.44385,97.30979 l -20.07735,-6.77761 40.93307,44.99599 -2.15841,-11.75785 a 2.0890475,2.0890475 0 0 0 -0.13759,-1.57273 c -0.0794,-0.15918 -0.1602,-0.3161 -0.23921,-0.47534 l -8.44632,-46.02455 z m -1.96406,63.88966 a 2.0890475,2.0890475 0 0 0 -0.0888,-0.18995 C 570.26413,694.5368 541.26246,658.95941 506.18535,630.24947 l 19.8588,-3.86983 -44.49592,-14.48023 c -0.14726,-0.0996 -0.2939,-0.19987 -0.44112,-0.29975 a 2.0890475,2.0890475 0 0 0 -1.54184,-0.34431 l -11.36672,-3.69788 39.16851,46.53748 -4.0554,-20.79597 c 34.74311,28.38568 63.46482,63.58547 84.31767,103.54721 a 2.0890475,2.0890475 0 0 0 3.79261,-1.74307 z"
       id="path5689-1-5-8" />
    <text
       xml:space="preserve"
       style="font-style:normal;font-variant:normal;font-weight:normal;font-stretch:normal;font-size:30px;line-height:125%;font-family:Calibri;-inkscape-font-specification:'Calibri, Normal';text-align:start;letter-spacing:0px;word-spacing:0px;writing-mode:lr-tb;text-anchor:start;fill:#00ffff;fill-opacity:1;stroke:none;stroke-width:0.30000001;stroke-linecap:butt;stroke-linejoin:miter;stroke-miterlimit:4;stroke-dasharray:none;stroke-opacity:1"
       x="-4.6072927"
       y="771.62006"
       id="text5667-8-2"
       sodipodi:linespacing="125%"
       inkscape:export-xdpi="98.681702"
       inkscape:export-ydpi="98.681702"><tspan
         sodipodi:role="line"
         id="tspan5829-2"
         x="-4.6072927"
         y="771.62006"
         style="font-style:normal;font-variant:normal;font-weight:bold;font-stretch:normal;font-size:40px;font-family:Calibri;-inkscape-font-specification:'Calibri Bold';fill:#00ffff;stroke:none;stroke-width:0.30000001;stroke-miterlimit:4;stroke-dasharray:none;stroke-opacity:1">Data processing</tspan><tspan
         sodipodi:role="line"
         id="tspan5835-0"
         x="-4.6072927"
         y="813.94006">- Raw data scanner, UE trace</tspan><tspan
         sodipodi:role="line"
         x="-4.6072927"
         y="851.44006"
         id="tspan4474-8">- Remove invalid data</tspan></text>
    <text
       xml:space="preserve"
       style="font-style:normal;font-variant:normal;font-weight:normal;font-stretch:normal;font-size:30px;line-height:125%;font-family:Calibri;-inkscape-font-specification:'Calibri, Normal';text-align:start;letter-spacing:0px;word-spacing:0px;writing-mode:lr-tb;text-anchor:start;fill:#00ffff;fill-opacity:1;stroke:none;stroke-width:0.30000001;stroke-linecap:butt;stroke-linejoin:miter;stroke-miterlimit:4;stroke-dasharray:none;stroke-opacity:1"
       x="-43.399189"
       y="433.03632"
       id="text5667-8-2-9"
       sodipodi:linespacing="125%"
       inkscape:export-xdpi="98.681702"
       inkscape:export-ydpi="98.681702"><tspan
         sodipodi:role="line"
         id="tspan5829-2-6"
         x="-43.399189"
         y="433.03632"
         style="font-style:normal;font-variant:normal;font-weight:bold;font-stretch:normal;font-size:40px;font-family:Calibri;-inkscape-font-specification:'Calibri Bold';fill:#00ffff;stroke:none;stroke-width:0.30000001;stroke-miterlimit:4;stroke-dasharray:none;stroke-opacity:1">E-RAN BBU Group</tspan><tspan
         sodipodi:role="line"
         id="tspan5835-0-0"
         x="-43.399189"
         y="475.35632">- Inter, intra freq. overlap</tspan><tspan
         sodipodi:role="line"
         x="-43.399189"
         y="512.85632"
         id="tspan6301">- Referece signal geometry, cell celation</tspan><tspan
         sodipodi:role="line"
         x="-43.399189"
         y="550.35632"
         id="tspan4474-8-5">- Baseband unit grouping</tspan></text>
    <text
       xml:space="preserve"
       style="font-style:normal;font-variant:normal;font-weight:normal;font-stretch:normal;font-size:15px;line-height:125%;font-family:Calibri;-inkscape-font-specification:'Calibri, Normal';text-align:start;letter-spacing:0px;word-spacing:0px;writing-mode:lr-tb;text-anchor:start;fill:#000000;fill-opacity:1;stroke:none;stroke-width:1px;stroke-linecap:butt;stroke-linejoin:miter;stroke-opacity:1"
       x="80"
       y="432.36215"
       id="text6303"
       sodipodi:linespacing="125%"><tspan
         sodipodi:role="line"
         id="tspan6305"
         x="80"
         y="432.36215">I</tspan></text>
    <text
       xml:space="preserve"
       style="font-style:normal;font-variant:normal;font-weight:normal;font-stretch:normal;font-size:30px;line-height:125%;font-family:Calibri;-inkscape-font-specification:'Calibri, Normal';text-align:start;letter-spacing:0px;word-spacing:0px;writing-mode:lr-tb;text-anchor:start;fill:#00ffff;fill-opacity:1;stroke:none;stroke-width:0.30000001;stroke-linecap:butt;stroke-linejoin:miter;stroke-miterlimit:4;stroke-dasharray:none;stroke-opacity:1"
       x="678.65173"
       y="234.45258"
       id="text5667-8-2-9-7"
       sodipodi:linespacing="125%"
       inkscape:export-xdpi="98.681702"
       inkscape:export-ydpi="98.681702"><tspan
         sodipodi:role="line"
         id="tspan6350"
         style="font-style:normal;font-variant:normal;font-weight:bold;font-stretch:normal;font-size:40px;font-family:Calibri;-inkscape-font-specification:'Calibri Bold';fill:#00ffff"
         x="678.65173"
         y="234.45258">Capacity Dimensioning</tspan><tspan
         sodipodi:role="line"
         id="tspan6352"
         x="678.65173"
         y="276.77258">-Traffic growth, VoLTE Users</tspan><tspan
         sodipodi:role="line"
         id="tspan6354"
         x="678.65173"
         y="314.27258">- Connected users growth</tspan><tspan
         sodipodi:role="line"
         id="tspan6356"
         x="678.65173"
         y="351.77258">- Processor load, Control channel</tspan><tspan
         sodipodi:role="line"
         id="tspan6358"
         x="678.65173"
         y="389.27258">- DL/UL throughput changes</tspan><tspan
         sodipodi:role="line"
         id="tspan6360"
         x="678.65173"
         y="426.77258">- Scheduling entity per TTI</tspan></text>
    <text
       xml:space="preserve"
       style="font-style:normal;font-variant:normal;font-weight:normal;font-stretch:normal;font-size:30px;line-height:125%;font-family:Calibri;-inkscape-font-specification:'Calibri, Normal';text-align:start;letter-spacing:0px;word-spacing:0px;writing-mode:lr-tb;text-anchor:start;fill:#00ffff;fill-opacity:1;stroke:none;stroke-width:0.30000001;stroke-linecap:butt;stroke-linejoin:miter;stroke-miterlimit:4;stroke-dasharray:none;stroke-opacity:1"
       x="849.73792"
       y="601.11749"
       id="text5667-8-2-9-5"
       sodipodi:linespacing="125%"
       inkscape:export-xdpi="98.681702"
       inkscape:export-ydpi="98.681702"><tspan
         sodipodi:role="line"
         id="tspan6403"
         style="font-style:normal;font-variant:normal;font-weight:bold;font-stretch:normal;font-size:40px;font-family:Calibri;-inkscape-font-specification:'Calibri Bold';fill:#00ffff"
         x="849.73792"
         y="601.11749">Feature Para. Design</tspan><tspan
         sodipodi:role="line"
         id="tspan6405"
         x="849.73792"
         y="643.4375">- Combined cells</tspan><tspan
         sodipodi:role="line"
         id="tspan6407"
         x="849.73792"
         y="680.9375">- UL/DL CoMP</tspan><tspan
         sodipodi:role="line"
         id="tspan6409"
         x="849.73792"
         y="718.4375">- PCI Re plan</tspan></text>
    <text
       xml:space="preserve"
       style="font-style:normal;font-variant:normal;font-weight:normal;font-stretch:normal;font-size:30px;line-height:125%;font-family:Calibri;-inkscape-font-specification:'Calibri, Normal';text-align:start;letter-spacing:0px;word-spacing:0px;writing-mode:lr-tb;text-anchor:start;fill:#00ffff;fill-opacity:1;stroke:none;stroke-width:0.30000001;stroke-linecap:butt;stroke-linejoin:miter;stroke-miterlimit:4;stroke-dasharray:none;stroke-opacity:1"
       x="686.91559"
       y="890.2038"
       id="text5667-8-2-9-3"
       sodipodi:linespacing="125%"
       inkscape:export-xdpi="98.681702"
       inkscape:export-ydpi="98.681702"><tspan
         sodipodi:role="line"
         id="tspan6411"
         style="font-style:normal;font-variant:normal;font-weight:bold;font-stretch:normal;font-size:40px;font-family:Calibri;-inkscape-font-specification:'Calibri Bold';fill:#00ffff"
         x="686.91559"
         y="890.2038">Evaluation</tspan><tspan
         sodipodi:role="line"
         id="tspan6413"
         x="686.91559"
         y="932.5238">- Maximize CA footprint</tspan><tspan
         sodipodi:role="line"
         id="tspan6415"
         x="686.91559"
         y="970.0238">- User experience</tspan></text>
  </g>
</svg>
