<?xml version="1.0" encoding="UTF-8" standalone="no"?>
<!-- Created with Inkscape (http://www.inkscape.org/) -->

<svg
   xmlns:dc="http://purl.org/dc/elements/1.1/"
   xmlns:cc="http://creativecommons.org/ns#"
   xmlns:rdf="http://www.w3.org/1999/02/22-rdf-syntax-ns#"
   xmlns:svg="http://www.w3.org/2000/svg"
   xmlns="http://www.w3.org/2000/svg"
   xmlns:xlink="http://www.w3.org/1999/xlink"
   xmlns:sodipodi="http://sodipodi.sourceforge.net/DTD/sodipodi-0.dtd"
   xmlns:inkscape="http://www.inkscape.org/namespaces/inkscape"
   width="1368"
   height="768"
   viewBox="0 0 1368 768.00001"
   id="svg4937"
   version="1.1"
   inkscape:version="0.91 r13725"
   sodipodi:docname="ML_five.svg">
  <defs
     id="defs4939">
    <linearGradient
       inkscape:collect="always"
       xlink:href="#linearGradient8578"
       id="linearGradient22069"
       x1="613.51874"
       y1="716.48846"
       x2="874.92755"
       y2="716.48846"
       gradientUnits="userSpaceOnUse"
       gradientTransform="matrix(1.9397401,0,0,1.9397401,-271.17754,-655.90591)" />
    <linearGradient
       inkscape:collect="always"
       id="linearGradient8578">
      <stop
         style="stop-color:#a90000;stop-opacity:1"
         offset="0"
         id="stop8580" />
      <stop
         id="stop8614"
         offset="0.0625"
         style="stop-color:#c60000;stop-opacity:1" />
      <stop
         id="stop8610"
         offset="0.125"
         style="stop-color:#ff0000;stop-opacity:1" />
      <stop
         style="stop-color:#f00000;stop-opacity:1"
         offset="0.1875"
         id="stop8612" />
      <stop
         id="stop8602"
         offset="0.25"
         style="stop-color:#ff5400;stop-opacity:1" />
      <stop
         style="stop-color:#ff4600;stop-opacity:1"
         offset="0.3125"
         id="stop8608" />
      <stop
         style="stop-color:#ff7f00;stop-opacity:1"
         offset="0.375"
         id="stop8604" />
      <stop
         id="stop8606"
         offset="0.4375"
         style="stop-color:#ff9b00;stop-opacity:1" />
      <stop
         id="stop8586"
         offset="0.5"
         style="stop-color:#ffd400;stop-opacity:1" />
      <stop
         style="stop-color:#fff000;stop-opacity:1"
         offset="0.5625"
         id="stop8600" />
      <stop
         style="stop-color:#ffff00;stop-opacity:1"
         offset="0.625"
         id="stop8596" />
      <stop
         id="stop8598"
         offset="0.6875"
         style="stop-color:#fff000;stop-opacity:1" />
      <stop
         style="stop-color:#a9ff54;stop-opacity:1"
         offset="0.75"
         id="stop8588" />
      <stop
         id="stop8594"
         offset="0.8125"
         style="stop-color:#b7ff46;stop-opacity:1" />
      <stop
         id="stop8590"
         offset="0.875"
         style="stop-color:#2affd4;stop-opacity:1" />
      <stop
         style="stop-color:#00e2ff;stop-opacity:1"
         offset="0.9375"
         id="stop8592" />
      <stop
         style="stop-color:#00007f;stop-opacity:1"
         offset="1"
         id="stop8582" />
    </linearGradient>
    <inkscape:path-effect
       effect="sketch"
       id="path-effect15681"
       is_visible="true"
       nbiter_approxstrokes="5"
       strokelength="100"
       strokelength_rdm="0.3;1"
       strokeoverlap="0.3"
       strokeoverlap_rdm="0.3;1"
       ends_tolerance="0.1;1"
       parallel_offset="5;1"
       tremble_size="5;1"
       tremble_frequency="1"
       nbtangents="5"
       tgt_places_rdmness="1;1"
       tgtscale="10"
       tgtlength="100"
       tgtlength_rdm="0.3;1" />
    <linearGradient
       inkscape:collect="always"
       xlink:href="#linearGradient8578"
       id="linearGradient22061"
       x1="620.70703"
       y1="431.19043"
       x2="868.82806"
       y2="431.19043"
       gradientUnits="userSpaceOnUse"
       gradientTransform="matrix(1.9397401,0,0,1.9397401,-271.17754,-104.31726)" />
  </defs>
  <sodipodi:namedview
     id="base"
     pagecolor="#ffffff"
     bordercolor="#666666"
     borderopacity="1.0"
     inkscape:pageopacity="0.0"
     inkscape:pageshadow="2"
     inkscape:zoom="0.35"
     inkscape:cx="702.27354"
     inkscape:cy="406.03978"
     inkscape:document-units="px"
     inkscape:current-layer="layer1"
     showgrid="true"
     units="px"
     showguides="false"
     inkscape:window-width="1292"
     inkscape:window-height="741"
     inkscape:window-x="-9"
     inkscape:window-y="-9"
     inkscape:window-maximized="1"
     objecttolerance="10000"
     guidetolerance="10000">
    <inkscape:grid
       type="xygrid"
       id="grid5485"
       empspacing="20" />
  </sodipodi:namedview>
  <metadata
     id="metadata4942">
    <rdf:RDF>
      <cc:Work
         rdf:about="">
        <dc:format>image/svg+xml</dc:format>
        <dc:type
           rdf:resource="http://purl.org/dc/dcmitype/StillImage" />
        <dc:title></dc:title>
      </cc:Work>
    </rdf:RDF>
  </metadata>
  <g
     inkscape:label="Layer 1"
     inkscape:groupmode="layer"
     id="layer1"
     transform="translate(0,-284.36214)">
    <path
       style="color:#000000;clip-rule:nonzero;display:inline;overflow:visible;visibility:visible;opacity:0.38500001;isolation:auto;mix-blend-mode:normal;color-interpolation:sRGB;color-interpolation-filters:linearRGB;solid-color:#000000;solid-opacity:1;fill:none;fill-opacity:1;fill-rule:evenodd;stroke:url(#linearGradient22061);stroke-width:1.93974018;stroke-linecap:round;stroke-linejoin:round;stroke-miterlimit:4;stroke-dasharray:none;stroke-dashoffset:0;stroke-opacity:1;color-rendering:auto;image-rendering:auto;shape-rendering:auto;text-rendering:auto;enable-background:accumulate"
       d="m 1066.1559,340.49322 c -9.2345,5.55912 -21.2622,12.85546 -31.339,18.93899 l -0.4281,1.64424 c 10.2674,-6.236 24.5305,-14.906 33.8886,-20.58323 l -2.1215,0 z m 8.3537,0 c -12.3451,7.73338 -27.429,17.15823 -41.5111,25.95919 l -0.1137,0.43569 c 14.2402,-8.91169 29.6665,-18.55451 42.1589,-26.39488 l -0.5341,0 z m 43.4017,0 c -24.2114,14.51009 -57.0453,34.31953 -92.6605,55.83952 l -0.4318,1.66317 c 38.1534,-23.18011 69.9975,-42.52236 94.6798,-57.50269 l -1.5875,0 z m 4.4212,0 c -24.8848,15.54721 -59.9959,37.33423 -98.4645,61.17003 l -0.1137,0.43567 c 38.5173,-23.89497 73.8739,-45.86573 98.9912,-61.6057 l -0.413,0 z m 18.5148,0 c -32.3884,19.01549 -73.8674,43.77064 -119.5857,71.22484 l -0.4699,1.80335 c 46.7829,-28.20487 89.2575,-53.71041 121.8361,-73.02819 l -1.7805,0 z m 13.1197,0 c -34.6475,22.20755 -82.7594,52.50806 -136.5926,86.20858 l -0.1287,0.4963 c 53.9235,-33.77984 102.2872,-64.26995 137.2176,-86.70488 l -0.4963,0 z m 29.4977,0 c -44.2425,25.55354 -103.9703,60.97103 -169.7462,100.32095 l -0.4926,1.89806 c 67.1287,-40.27004 127.7462,-76.39557 172.0499,-102.21901 l -1.8111,0 z m 18.5867,0 c -46.1639,30.15605 -116.4649,74.70184 -194.3832,123.65844 l -0.1403,0.53041 c 77.9485,-48.99293 148.5037,-93.7376 195.0387,-124.18885 l -0.5152,0 z m 33.2521,0 c -59.9501,35.7788 -143.2771,86.14555 -231.8103,139.75223 l -0.5077,1.96248 c 89.8021,-54.44568 174.2632,-105.66803 234.1744,-141.71471 l -1.8564,0 z m 10.6913,0 C 1185.0386,378.9483 1095.26,434.90529 999.8637,494.24796 l -0.1327,0.51903 c 95.507,-59.42582 185.432,-115.51828 246.7488,-154.27377 l -0.485,0 z m 31.4186,0 c -70.3555,42.67092 -174.0335,105.83165 -282.1603,171.542 l -0.5267,2.03446 c 112.4713,-68.39538 214.2293,-130.61022 284.4903,-173.57646 l -1.8033,0 z m 4.0007,0 c -70.4996,43.76319 -174.5097,108.16345 -287.9758,178.54326 l -0.1363,0.51523 c 112.538,-69.81428 218.166,-135.27298 288.5515,-179.05849 l -0.4394,0 z m 37.5786,0 C 1235.078,391.37311 1112.274,466.14765 987.57,541.67309 l -0.5267,2.02688 c 128.3547,-77.73999 250.1501,-152.10179 333.8248,-203.20675 l -1.8754,0 z m 4.5842,0 c -83.4176,51.75051 -207.2463,128.31883 -338.1096,209.29495 l -0.1364,0.51904 c 128.6627,-79.61878 254.658,-157.55393 338.7651,-209.81399 l -0.5191,0 z m 32.1384,0 c -87.639,52.9323 -231.1071,140.31141 -374.9799,227.54063 l -0.5266,2.03067 c 148.9155,-90.28594 290.9926,-177.04791 377.2492,-229.5713 l -1.7427,0 z m 5.319,0 c -84.6946,52.7666 -226.6959,140.67606 -369.7288,229.4008 -4.4101,2.73556 -8.7633,5.44002 -13.17292,8.17572 l -0.14022,0.53418 c 5.20284,-3.22774 10.10984,-6.2814 15.31334,-9.50926 142.1088,-88.15207 283.3751,-175.66668 368.1681,-228.60144 l -0.4395,0 z m 41.1931,0 c -93.5347,56.21008 -237.0524,143.34121 -381.5152,230.66242 -16.2031,9.79397 -32.2273,19.45933 -48.35707,29.19837 l -0.52282,2.01173 c 16.22029,-9.78853 32.33929,-19.50306 48.62979,-29.34994 53.2896,-32.21103 106.1703,-64.25811 156.8691,-95.00939 l 0.3446,-1.20855 1.6441,0 c 87.178,-52.87899 166.1002,-100.8266 224.7184,-136.30464 l -1.8109,0 z m 8.7552,0 c -56.3555,35.27928 -133.1994,83.06026 -219.0012,136.30464 l 0.6668,0 c 85.6316,-53.16391 162.3228,-100.89647 218.7891,-136.30464 l -0.4547,0 z m 2.1709,22.92076 c -51.7448,31.04999 -116.2065,69.97654 -187.9579,113.38388 l 2.6103,0 c 70.201,-42.5637 134.374,-81.47186 185.0027,-112.0503 l 0.3449,-1.33358 z m -2.0876,8.05448 c -47.0036,29.44118 -104.5562,65.31242 -168.9127,105.3294 l 0.6478,0 c 63.9814,-39.8064 121.2176,-75.5135 168.1703,-104.9619 l 0.095,-0.3675 z m -8.7439,33.75222 c -34.367,20.70429 -76.36,46.09182 -118.5022,71.57718 l 2.4056,0 c 41.0863,-24.91909 82.1755,-49.82973 115.729,-70.15266 l 0.3676,-1.42452 z m -2.0419,7.89157 c -30.9992,19.32866 -64.9692,40.46719 -102.3479,63.68561 l 0.6212,0 c 36.9913,-22.99374 70.8336,-44.07104 101.6242,-63.29159 l 0.1028,-0.39402 z m -8.369,32.30501 c -17.1478,10.27444 -34.0027,20.36466 -52.3428,31.3806 l 2.4739,0 c 17.3551,-10.45225 33.1771,-19.95843 49.4446,-29.74016 l 0.4243,-1.64044 z m -4.4555,17.18868 c -7.7932,4.88293 -14.5697,9.15575 -22.6176,14.19192 l 0.6289,0 c 7.7493,-4.85248 14.3563,-9.01797 21.8714,-13.72972 l 0.1164,-0.4622 z m -212.875,24.98172 c -52.0214,32.27499 -106.011,65.74968 -160.9038,99.77161 -15.3634,9.52209 -29.9017,18.54585 -45.22398,28.04288 l -0.13268,0.52282 c 16.04086,-9.94142 31.27266,-19.3937 47.36076,-29.36509 54.168,-33.57316 107.3604,-66.56488 158.7555,-98.46455 l 0.1436,-0.50767 z m -6.8801,23.99672 c -48.1244,29.12503 -97.0193,58.72373 -147.0376,88.96664 -19.2132,11.61706 -38.2381,23.10027 -57.3397,34.63875 l -0.52282,2.01173 c 19.19342,-11.58728 38.31132,-23.12015 57.61252,-34.79029 49.9393,-30.19501 98.7055,-59.75619 146.7231,-88.86057 l 0.5645,-1.96626 z m -4.0043,13.96462 c -51.0546,31.70856 -103.125,64.03247 -156.5433,97.18023 -16.4345,10.1982 -31.99523,19.87417 -48.38736,30.04702 l -0.13637,0.52282 c 17.11158,-10.61831 33.36793,-20.72079 50.52793,-31.36923 52.691,-32.69676 103.9807,-64.54982 154.3912,-95.86939 l 0.1474,-0.51145 z m -8.2857,28.88774 c -47.8107,28.92729 -95.9121,58.03699 -145.3821,87.91341 -19.2869,11.64796 -38.37448,23.15557 -57.56324,34.72969 l -0.52281,2.00414 c 19.27855,-11.6222 38.46295,-23.17373 57.83605,-34.87366 49.1016,-29.6537 97.609,-59.02054 145.0562,-87.76566 l 0.5759,-2.00792 z m -3.7583,13.09702 c -43.2639,26.81754 -86.2001,53.4355 -130.8415,81.09024 -24.6763,15.28657 -48.13784,29.84181 -72.64554,45.02698 l -0.13267,0.51902 c 25.21689,-15.62236 49.38221,-30.61026 74.78221,-46.34538 43.9132,-27.20386 86.096,-53.36603 128.6898,-79.77562 l 0.1474,-0.51524 z m 11.4414,15.48761 c -38.3395,23.10182 -75.7897,45.66185 -114.8234,69.17523 -35.4985,21.38372 -70.96592,42.73702 -105.88259,63.74245 l -0.37507,1.45102 c 0.21364,0 0.57121,-0.0213 0.79561,-0.0227 34.70142,-20.85856 69.95505,-42.07236 105.21185,-63.31054 40.0071,-24.09947 78.388,-47.25915 117.6271,-70.92556 -0.8513,-0.0366 -1.6981,-0.0783 -2.5535,-0.10979 z m 28.168,2.04961 c -43.5029,27.07819 -87.71,54.57676 -132.4859,82.39351 -25.8626,16.067 -50.4874,31.36084 -76.1991,47.32661 0.2727,-0.0236 0.5395,-0.0479 0.8146,-0.072 26.1069,-16.20887 51.1246,-31.73745 77.3887,-48.05402 44.2874,-27.51349 88.0244,-54.72065 131.0728,-81.52214 -0.1981,-0.0223 -0.3929,-0.0501 -0.5911,-0.072 z m 31.9262,5.12214 c -46.9387,28.29659 -93.3799,56.29533 -141.4913,85.28417 -20.3275,12.24806 -40.4241,24.34093 -60.6547,36.52165 0.9734,-0.0218 1.9587,-0.05 2.9096,-0.0605 19.1852,-11.54708 38.2312,-22.99368 57.4951,-34.60088 48.8981,-29.46271 96.0966,-57.95512 143.7378,-86.70487 -0.6657,-0.14664 -1.3277,-0.29686 -1.9965,-0.43946 z m 21.6098,5.49718 c -42.2869,26.26104 -85.2215,52.90057 -128.629,79.79454 -20.8947,12.9457 -40.7337,25.21166 -61.5602,38.10529 0.2041,0.0196 0.4025,0.0409 0.6062,0.0605 21.2949,-13.18217 41.5903,-25.72635 62.9581,-38.96529 42.8777,-26.56587 85.3079,-52.89667 127.0986,-78.85497 -0.1571,-0.0471 -0.3158,-0.0933 -0.4737,-0.14025 z m 19.5377,6.64512 c -35.6222,21.51475 -69.9973,42.262 -106.0608,64.04175 -28.0483,16.93932 -54.5536,32.90938 -82.3745,49.70206 0.772,0.10763 1.5262,0.22629 2.2922,0.33716 26.5581,-16.02269 53.0831,-32.02462 79.8323,-48.17905 36.7387,-22.18726 71.7381,-43.34739 107.9966,-65.26164 -0.5568,-0.21974 -1.1262,-0.4241 -1.6858,-0.64028 z m 19.886,8.72883 c -39.4506,24.51859 -79.586,49.43876 -119.7902,74.3845 -19.732,12.24315 -38.4486,23.84436 -58.1392,36.05568 0.1726,0.0386 0.3456,0.0749 0.519,0.11367 20.1923,-12.52121 39.3952,-24.41608 59.6319,-36.97251 39.6617,-24.6094 79.2357,-49.18351 118.1688,-73.38432 -0.1299,-0.065 -0.2596,-0.13229 -0.3903,-0.19702 z m 21.2615,11.99837 c -41.0088,24.75395 -80.756,48.75211 -122.3893,73.86167 -17.3669,10.47412 -34.5109,20.79717 -51.8312,31.23663 0.6149,0.19552 1.2172,0.39978 1.8261,0.59861 16.6383,-10.02581 33.1044,-19.93216 49.7815,-29.99022 42.1789,-25.43835 82.4248,-49.77369 123.9389,-74.85048 -0.4409,-0.2864 -0.8828,-0.5728 -1.326,-0.85621 z m 14.1426,9.85403 c -46.4162,28.6608 -93.5431,57.72178 -141.0099,86.93976 -8.7904,5.41082 -17.4836,10.74273 -26.2739,16.1506 0.1378,0.0597 0.265,0.1257 0.4018,0.18563 9.3586,-5.75726 18.6156,-11.43532 27.9745,-17.19625 46.8473,-28.8369 93.3885,-57.53807 139.2181,-85.84107 -0.105,-0.0792 -0.2064,-0.15985 -0.3106,-0.23869 z m 4.5879,3.57262 c -51.8639,31.49249 -102.9953,62.5365 -156.1301,94.80857 -4.0666,2.46992 -7.1252,4.32328 -11.1915,6.79288 0.5257,0.24664 1.0756,0.48125 1.5951,0.73121 3.3067,-2.0082 6.4147,-3.8904 9.7213,-5.89879 53.5121,-32.5005 104.98,-63.78002 157.1646,-95.49432 -0.386,-0.31361 -0.7712,-0.62865 -1.1594,-0.93955 z m 10.2368,8.74397 c -40.7555,25.2383 -82.1812,50.87437 -123.685,76.54397 -13.2827,8.21526 -25.8027,15.95524 -39.0714,24.15961 0.1202,0.0722 0.2296,0.14741 0.3486,0.21974 13.8922,-8.58936 27.0083,-16.69408 40.9163,-25.29618 40.8454,-25.26273 81.6502,-50.51341 121.7755,-75.36574 -0.095,-0.0867 -0.1882,-0.17477 -0.284,-0.2614 z m 14.1956,14.02143 c -27.071,16.33834 -52.7879,31.86199 -80.0255,48.29273 -27.341,16.49298 -54.4404,32.81847 -81.6284,49.20576 0.3934,0.32463 0.8102,0.638 1.1972,0.96606 26.9597,-16.24284 53.8275,-32.42268 80.9273,-48.77007 27.4142,-16.53685 53.2638,-32.16675 80.4992,-48.61094 -0.3254,-0.35978 -0.6414,-0.72585 -0.9698,-1.08354 z m 12.5022,15.05952 c -18.3183,11.3612 -36.4358,22.60822 -54.8204,34.00228 -35.2943,21.87417 -68.8006,42.61604 -103.7494,64.25769 0.075,0.0973 0.1551,0.19408 0.231,0.29173 35.647,-22.07084 69.8616,-43.24318 105.8712,-65.56096 17.6722,-10.95278 35.0794,-21.76406 52.6913,-32.68764 -0.075,-0.10052 -0.1475,-0.20279 -0.2237,-0.3031 z m 10.6686,15.69219 c -8.5015,5.15235 -16.8616,10.22996 -25.3718,15.38532 -45.0873,27.31267 -90.1662,54.58608 -134.6266,81.45017 0.2214,0.42326 0.4373,0.84993 0.6518,1.27673 44.6355,-26.95074 89.8728,-54.31152 135.1112,-81.71536 8.3887,-5.08158 16.6216,-10.08688 25.0008,-15.16557 -0.2499,-0.41431 -0.5127,-0.81907 -0.7654,-1.23129 z m 4.0766,6.91411 c -16.0419,9.8571 -31.8775,19.59852 -47.9594,29.47498 -38.1722,23.44298 -74.4579,45.68037 -112.2473,68.86455 0.045,0.1131 0.087,0.22756 0.1319,0.34097 38.5192,-23.62875 75.5465,-46.31018 114.4673,-70.21329 15.3539,-9.42954 30.4668,-18.7287 45.7848,-28.14139 -0.06,-0.10785 -0.1184,-0.21802 -0.1785,-0.32582 z m 3.8985,7.3536 c -22.9701,13.93297 -44.6934,27.1125 -67.7698,41.10583 -31.9244,19.35861 -62.181,37.66733 -93.8615,56.8662 0.1494,0.47816 0.2943,0.95774 0.4358,1.43965 31.4381,-19.04266 62.8975,-38.09587 94.5583,-57.29432 22.9269,-13.9022 44.4707,-26.99379 67.2848,-40.83684 -0.2137,-0.42842 -0.4312,-0.85411 -0.6476,-1.28052 z m 5.8267,12.45298 c -7.6878,4.7531 -15.254,9.43629 -22.9473,14.19193 -47.9941,29.66743 -94.0111,58.09972 -141.0251,87.14812 0.02,0.13133 0.038,0.26255 0.056,0.39403 47.7479,-29.49635 94.5538,-58.40791 143.3209,-88.5537 6.956,-4.29986 13.7947,-8.53386 20.7462,-12.83184 -0.05,-0.11677 -0.1006,-0.23191 -0.1513,-0.34854 z m 6.2852,16.45368 c -57.267,34.61925 -113.7165,68.6962 -169.0719,102.06747 0,0.55585 -0.031,1.09217 -0.037,1.64423 55.5344,-33.44278 112.1651,-67.60347 169.5871,-102.30992 -0.1552,-0.47026 -0.3191,-0.9335 -0.4774,-1.40178 z m 3.9665,12.93792 c -59.1118,36.30949 -117.3934,72.06759 -174.05,106.7956 -0.02,0.14799 -0.033,0.2956 -0.048,0.44324 56.6794,-34.73132 115.0322,-70.53091 174.2053,-106.87515 -0.033,-0.12219 -0.072,-0.24154 -0.1061,-0.36369 z m 1.2655,4.8039 c -59.7233,36.23928 -118.8886,72.13675 -175.8951,106.71223 -0.087,0.60284 -0.2038,1.18699 -0.2992,1.7844 57.2244,-34.66444 116.6455,-70.6948 176.5692,-107.04562 -0.1202,-0.48685 -0.2515,-0.9661 -0.3749,-1.45101 z m 3.7695,17.25686 c -63.4604,39.17965 -126.8805,78.3387 -186.1582,114.92582 -0.07,0.18312 -0.1455,0.36303 -0.2159,0.54556 59.3538,-36.62062 122.8432,-75.81801 186.4461,-115.08116 -0.023,-0.13016 -0.048,-0.26024 -0.072,-0.39022 z m 2.2847,14.52912 c -68.1761,41.14612 -135.5425,81.79514 -198.1909,119.50617 -0.5722,0.86973 -1.158,1.73062 -1.7578,2.58002 63.7983,-38.33139 130.6782,-78.58938 200.1607,-120.49878 -0.066,-0.53221 -0.1417,-1.05719 -0.212,-1.58741 z m 2.1897,23.47008 C 1208.4461,927.88014 1026.9223,1039.9481 933.80274,1098.7158 l 0,0.2425 c 92.38056,-58.2126 274.15776,-170.37343 471.59546,-292.36291 0,-0.13831 -0.02,-0.27859 -0.02,-0.41676 z m 0.5342,16.27186 c -194.5208,117.24825 -371.1954,223.31201 -465.40511,278.67861 0.29954,0.085 0.60264,0.1696 0.90168,0.2538 95.11423,-55.4611 271.06323,-160.80041 464.51863,-277.29575 0,-0.54662 0,-1.09181 -0.02,-1.63666 z m -0.519,24.34525 c -180.0795,110.75969 -340.6105,209.23216 -428.60308,263.70996 0.0864,0.02 0.17139,0.037 0.25758,0.057 87.4337,-54.0312 248.0777,-152.49897 428.3227,-263.33113 0,-0.14548 0.02,-0.29012 0.023,-0.43569 z m -0.5532,8.46363 c -177.3156,107.25956 -336.4676,203.39063 -424.428,256.07223 0.3236,0.073 0.6506,0.1471 0.9736,0.2198 88.7293,-52.7172 247.0545,-148.08457 423.3143,-254.58717 0.047,-0.56847 0.095,-1.13479 0.1396,-1.70486 z m -3.0536,26.06526 c -163.1197,100.8132 -306.7304,189.66357 -382.2577,237.55007 0.099,0.015 0.2005,0.03 0.2993,0.046 74.9301,-47.426 218.5527,-136.21327 381.8825,-237.12581 0.025,-0.15673 0.05,-0.31302 0.075,-0.46979 z m -3.2392,17.22656 c -156.6033,94.42354 -294.1251,176.80481 -370.5699,221.55861 0.3501,0.048 0.7077,0.1039 1.057,0.1515 77.1752,-44.7969 213.7696,-126.34027 369.115,-219.86514 0.1378,-0.61253 0.2638,-1.23034 0.3979,-1.84503 z m -3.1027,12.86972 c -164.7894,101.25289 -301.3281,185.31859 -341.8377,211.45069 0.08,0.011 0.1628,0.013 0.2423,0.02 38.0935,-24.5494 175.0773,-108.8047 341.4626,-210.9923 0.043,-0.15983 0.09,-0.31739 0.1319,-0.47737 z m -2.8529,9.91465 c -163.4559,98.78454 -295.4723,178.15494 -336.2911,201.72924 0.2279,0.015 0.4507,0.026 0.6781,0.042 43.8596,-24.9042 174.6059,-103.1497 335.0408,-199.90319 0.1952,-0.62011 0.3811,-1.24522 0.5722,-1.86776 z m -452.4861,13.85098 c -2.2049,1.36808 -4.11412,2.5582 -6.30416,3.9173 l 0,0.38643 c 2.35358,-1.45973 4.30833,-2.67424 6.67922,-4.14458 -0.12549,-0.0514 -0.24961,-0.10719 -0.37506,-0.15915 z m 445.8902,5.17129 c -128.8449,79.49037 -237.4341,146.73267 -295.011,183.30937 0.1262,0 0.2526,-0.011 0.3788,-0.012 56.9413,-36.1054 165.3638,-103.1871 294.42,-182.77138 0.07,-0.17631 0.1436,-0.35 0.2122,-0.52664 z m -430.31922,0.75393 c -7.65102,4.59018 -14.40075,8.61717 -21.87514,13.09707 l 0,1.3942 c 7.99013,-4.7763 15.21591,-9.07421 23.4057,-13.976 -0.50945,-0.17478 -1.02175,-0.33764 -1.53056,-0.51527 z m 14.61245,4.68271 c -12.52613,7.68046 -24.37237,14.94916 -36.48759,22.37896 l 0,0.3638 c 12.22429,-7.4926 24.25093,-14.8676 36.89677,-22.61774 -0.13672,-0.0394 -0.27246,-0.0853 -0.40918,-0.12491 z m 7.35739,2.05714 c -15.19133,9.18662 -29.23998,17.67042 -43.84498,26.49722 l 0,1.5078 c 14.55609,-8.7774 30.509,-18.4189 45.62562,-27.5428 -0.5937,-0.15378 -1.18794,-0.30472 -1.78064,-0.46222 z m 148.84848,3.01572 c -1.2616,0.2942 -2.5248,0.5879 -3.8112,0.8638 -72.5249,43.577 -137.4944,82.49147 -188.88226,113.06577 l 0,1.004 c 52.44786,-31.0303 118.66536,-70.55847 192.69346,-114.93357 z m -123.6622,2.5156 c -24.43936,15.142 -46.72835,28.9905 -69.03126,42.8447 l 0,0.3562 c 22.38843,-13.8973 44.96597,-27.9083 69.52756,-43.1175 -0.1653,-0.029 -0.3311,-0.055 -0.4963,-0.083 z m 94.892,2.3716 c -0.2547,0.03 -0.5025,0.062 -0.7578,0.091 -61.8968,38.2573 -117.72141,72.82807 -163.16546,101.13177 l 0,0.2918 C 979.28289,1028.9757 1035.549,994.16173 1097.726,955.75453 Z m -75.8243,0.341 c -30.6431,18.3759 -60.7308,36.4069 -88.09896,52.75187 l 0,1.2617 c 27.96207,-16.64067 58.75236,-35.04107 90.08796,-53.78617 -0.6645,-0.069 -1.3254,-0.1543 -1.989,-0.2274 z m 356.6775,1.345 c -119.0236,71.50757 -220.3629,132.05177 -278.2544,165.88567 0.4589,-0.022 0.921,-0.034 1.3792,-0.057 58.4952,-33.8658 158.7349,-93.5087 275.8636,-163.71487 0.3421,-0.7017 0.6754,-1.4086 1.0116,-2.1141 z m -328.1647,0.4697 c -41.8215,25.607 -81.43985,49.88967 -116.61176,71.42957 l 0,0.3069 c 35.40225,-21.6595 74.96226,-45.89067 117.18746,-71.72887 -0.192,0 -0.384,0 -0.5757,-0.011 z m 7.7324,0.049 c -0.6719,0 -1.3206,0.023 -1.9965,0.023 -0.1436,0 -0.2851,0 -0.4281,0 -44.1668,26.7684 -85.14442,51.59657 -121.91956,73.86167 l 0,1.2011 c 37.90937,-22.8596 78.91346,-47.61367 124.34416,-75.08167 z m 301.9743,31.8694 c -83.144,51.34617 -155.0167,95.86457 -205.3736,127.43197 0.1919,-0.035 0.3842,-0.068 0.5756,-0.1017 49.9988,-31.2899 121.5098,-75.5435 204.3473,-126.67047 0.1492,-0.2204 0.3023,-0.4384 0.4507,-0.6592 z m -14.6161,19.64747 c -68.7409,41.3057 -129.2895,77.5276 -174.9366,104.5718 0.8724,-0.1973 1.7452,-0.3954 2.6141,-0.5986 44.9523,-26.4504 103.6741,-61.4285 170.0115,-101.1658 0.7827,-0.9284 1.5428,-1.8705 2.311,-2.8074 z m -26.9934,28.4332 c -37.2308,23.1141 -69.8902,43.4893 -96.6651,60.3365 0.4213,-0.1678 0.8373,-0.346 1.2577,-0.5153 26.2174,-16.4661 57.9088,-36.2199 94.2404,-58.7567 0.3908,-0.3537 0.7786,-0.7093 1.167,-1.0645 z"
       id="rect15655"
       inkscape:connector-curvature="0" />
    <path
       style="font-style:normal;font-variant:normal;font-weight:bold;font-stretch:normal;font-size:medium;line-height:125%;font-family:Aharoni;-inkscape-font-specification:'Aharoni Bold';text-align:start;letter-spacing:0px;word-spacing:0px;writing-mode:lr-tb;text-anchor:start;fill:none;fill-opacity:1;stroke:url(#linearGradient22069);stroke-width:1.93974018px;stroke-linecap:butt;stroke-linejoin:miter;stroke-opacity:1"
       d="m 1420.5016,354.69718 c -5.54,25.05302 -13.2875,51.55936 -20.9639,77.73932 m 3.708,-28.97849 c -6.4742,22.75347 -11.766,46.25917 -16.6313,69.9079 m -2.6065,-9.22492 c -1.6617,5.37237 -3.2319,10.73701 -4.7314,16.08586 -19.4882,-0.41009 -38.1603,-1.00259 -56.8345,-2.094 m 22.2768,2.76867 c -30.2448,1.06436 -62.6934,0.64816 -93.375,1.63239 m 18.9703,-8.8986 c -29.1043,-0.6952 -55.181,-0.79002 -80.0296,-1.81167 m 21.0384,6.46064 c -11.6864,0.31842 -22.9189,0.12264 -33.8197,-0.47578 -3.3713,12.88924 -6.2227,25.14734 -8.794,36.99329 m -2.3723,-12.93602 c -7.5927,23.94058 -13.1464,47.6012 -17.8939,70.99073 m 9.4556,-20.04973 c -2.3212,8.64731 -4.8524,17.47678 -7.5532,26.46925 14.5474,0.41964 28.1244,1.99962 40.8628,4.57431 m -15.7619,-0.1166 c 29.7302,2.50751 54.7892,6.13091 78.1419,12.52568 3.5372,0.96861 7.0163,1.99644 10.4429,3.08703 m -20.9432,-9.23843 c 4.443,1.49433 8.8483,3.05209 13.2224,4.69332 25.3988,9.52995 49.1171,21.6698 70.7206,38.87841 m -25.2854,-13.09906 c 13.1069,7.77841 24.7093,16.46904 35.1939,26.17445 9.5573,8.74173 17.9509,18.14471 25.4519,28.27615 m -17.8074,-20.67719 c 18.0154,19.15368 30.4302,39.5532 39.234,62.25204 1.6555,4.26825 3.1818,8.6128 4.5969,13.04698 m -9.682,-14.98405 c 1.4051,2.95016 2.7405,5.96764 4.0096,9.05429 9.2326,22.45533 14.7635,47.99497 18.5244,78.59312 m 1.2755,-28.08701 c 1.9449,16.99828 2.89,35.09796 2.2892,54.48811 -0.2431,7.84406 -0.7254,15.64531 -1.4819,23.4648 m 2.917,-22.29599 c -0.2221,27.03583 -4.6058,53.6036 -12.5235,78.00424 m 4.8382,-15.51229 c -4.6963,22.84763 -10.5481,43.75899 -18.2622,63.92856 -3.1333,8.19233 -6.5577,16.21789 -10.3068,24.14108 m 11.2052,-23.79318 c -12.9212,29.87862 -32.3524,53.54581 -56.3773,72.32411 m 17.8856,-19.5187 c -11.7301,14.3273 -24.9023,27.6585 -39.5951,40.6478 -10.8064,9.5437 -21.9554,18.543 -33.459,27.2059 m 21.717,-22.4756 c -22.0431,16.4062 -44.8118,28.7699 -67.911,37.5634 m 6.7879,1.2349 c -11.7037,5.353 -23.8751,10.1053 -36.2752,14.1079 -14.7089,4.7477 -29.7856,8.4539 -44.6748,10.8047 m 24.5692,-4.4643 c -28.7123,6.7592 -60.6999,9.9062 -94.3463,8.0825 m 30.1865,0.088 c -10.3734,0.1886 -21.2943,0.4178 -31.6068,0.549 -19.2341,0.2447 -41.1296,-0.5694 -63.4242,-3.4953 m 25.475,5.509 c -27.3407,-3.4583 -59.01757,-11.4647 -92.69504,-26.6044 m 20.03549,14.2579 c -13.11546,-3.184 -26.45442,-6.7865 -39.98033,-10.8404 0.45306,-19.3111 1.33906,-38.5683 2.29822,-57.9762 m 1.20083,20.3885 c 0.87543,-28.6113 -0.1112,-57.5486 -0.87996,-83.67935 m 3.84822,26.44335 c -0.45478,-23.80006 -0.69143,-47.13746 -1.38895,-70.08175 m 3.10804,18.02313 c 0.0813,-5.79234 0.14814,-11.5352 0.20774,-17.24273 22.12306,9.19126 44.6505,16.30559 68.24434,20.33296 m -25.25295,-4.25853 c 23.09065,6.75605 47.83625,9.59219 72.66165,9.25355 m -17.629,0.99549 c 6.6598,0.55802 13.4183,0.76271 20.2746,0.625 23.923,-0.4805 46.3166,-4.33005 65.9902,-10.24645 m -26.7451,-3.46935 c 10.6303,-1.63285 20.5997,-3.39212 30.1573,-5.53587 21.2394,-4.76393 39.0057,-11.14445 53.6924,-20.3646 3.143,-1.97317 6.1225,-4.06401 8.9385,-6.27725 m -24.1226,24.65618 c 5.5573,-2.65416 10.7777,-5.72195 15.628,-9.15131 14.0349,-9.92322 24.9731,-22.85245 32.7432,-38.23796 2.0297,-4.01888 3.8431,-8.20363 5.4422,-12.54498 m 1.8551,10.06305 c 1.0793,-1.95213 2.0925,-3.95155 3.0399,-5.99788 7.0732,-15.27704 10.4713,-33.14505 10.31,-53.51851 -0.057,-7.16734 -0.7143,-14.01258 -1.9624,-20.52359 m -1.5053,23.46316 c 0.3273,-18.05348 -3.9474,-33.93079 -12.2796,-47.37154 -6.9701,-11.24352 -16.8699,-20.93561 -29.6512,-28.8952 m 18.5325,9.87208 c -6.8888,-8.67737 -15.3367,-16.35839 -25.3709,-23.04275 -14.594,-9.7219 -32.4919,-17.31118 -54.0147,-22.87769 m 29.899,2.90869 c -7.9982,-3.35232 -16.9229,-6.23159 -26.7273,-8.56914 -17.2681,-4.11701 -37.5084,-6.59818 -59.6834,-6.81058 m 13.335,14.21738 c -13.7378,-1.9606 -28.4062,-3.59885 -43.5568,-4.77004 -12.5361,-1.06734 -28.0396,-0.75061 -45.78006,1.1542 m 24.55256,-17.50162 c -9.0354,-0.14046 -18.66316,0.3313 -29.07324,1.43453 -1.43954,0.12788 -32.59932,3.06061 -29.91337,2.81794 -4.92923,0.44535 -9.00777,0.77312 -12.44954,0.98465 m 18.60114,10.08908 c -0.87913,0.056 -1.73993,0.10905 -2.5819,0.15906 -7.91013,0.46986 -14.12362,0.67268 -18.34112,0.62138 5.76072,-25.33947 8.97757,-50.88555 10.97547,-77.05999 m 5.59901,33.32784 c 9.17074,-30.3814 16.71051,-61.62319 25.79666,-92.21424 m -16.50563,10.34917 c 6.1207,-23.35967 13.08532,-46.1145 20.87736,-67.84789 m -3.42154,29.91414 c 6.24312,-28.13095 16.2928,-58.08415 27.347,-88.5924 m -11.381,17.651 c 7.0599,-31.71649 17.1491,-59.7476 28.0601,-87.43632 m -4.2452,28.35305 c 6.0021,-24.41292 12.4926,-48.7404 18.9367,-73.09192 m -6.1158,12.10475 c 1.6957,-7.5358 3.5242,-15.22246 5.4256,-23.00654 17.1505,0.10493 34.6393,-0.24212 51.8691,-0.50704 m -21.1883,-0.92278 c 23.0227,-0.28199 47.7079,-0.0434 72.3955,0.24994 m -17.8889,5.21925 c 29.4292,0.95731 60.133,-0.61208 91.8227,-2.47678 m -25.9368,-1.15636 c 32.9545,-0.0127 66.1496,0.40146 99.8471,1.25264 m -35.0247,-3.63565 c 31.2825,-0.61733 62.5172,-0.11069 95.8808,0.0149 m -24.7847,-1.14762 c 25.963,-0.21303 50.1558,-0.30327 72.5582,-0.66876 m 12.2999,10.63222 c -6.4237,29.45813 -16.7826,58.81101 -27.3188,85.90488 m 10.7685,-28.31481 c -5.8499,20.16594 -11.359,41.43067 -17.0737,62.7977 -9.589,0.18153 -19.2174,0.38262 -28.9307,0.51996 m 34.2166,4.38227 c -27.9076,0.65154 -56.1124,-1.01578 -83.8094,-3.56404 m 12.7288,-2.06165 c -29.3543,-1.27586 -56.5239,1.32055 -84.0061,5.04695 m 13.49,7.33644 c -25.7451,0.31266 -50.7751,0.34586 -74.9352,0.64032 -0.068,0.31116 -0.135,0.62235 -0.2023,0.93358 m 21.1729,-9.11317 c -5.8143,-0.0501 -11.662,-0.0998 -17.5415,-0.15339 -7.5817,25.43836 -15.8299,50.79356 -24.5895,75.63926 m 13.3115,-21.8335 c -6.1914,19.19656 -11.248,38.38926 -15.9925,57.98689 7.8604,0.31364 15.5989,0.87539 23.1859,1.70138 m -23.6162,-5.88358 c 28.2913,-1.16295 57.8343,3.67882 84.7217,11.15355 m -13.5974,-9.26194 c 15.1616,2.32642 28.9418,6.28919 41.3469,11.58436 10.1598,4.33676 19.4668,9.59672 27.9109,15.65893 m -26.0271,-7.56858 c 26.3114,10.7194 49.3849,24.01237 71.3983,40.70951 2.7204,2.03943 5.4032,4.11708 8.0525,6.23468 m -13.6405,-18.91832 c 3.4882,2.89204 6.908,5.98546 10.2451,9.27289 17.4541,16.98943 31.866,38.62929 41.2663,63.84826 m -12.8658,-18.26716 c 8.1665,11.9764 14.7785,24.63842 20.0226,37.97912 5.8786,14.95502 9.998,30.65283 12.7352,47.19538 m -2.6022,-24.37688 c 5.8165,21.93989 9.7935,47.73287 11.5431,75.72852 m -4.1856,-24.89278 c 0.2317,7.00051 0.3316,14.19595 0.2808,21.55139 -0.1239,17.93163 -1.1008,35.09241 -3.3574,51.75651 m 4.7602,-6.07367 c -4.6017,33.08173 -9.9317,61.80227 -20.3828,90.24811 m 5.6963,-29.0217 c -3.2082,9.44408 -6.6046,18.67312 -10.2525,27.76517 -5.4449,13.57061 -11.3856,26.67339 -17.9636,39.51865 m 12.4884,-9.81321 c -13.1351,20.63039 -29.737,41.04159 -50.0716,59.31159 m 13.9097,-17.9319 c -8.4123,8.6435 -18.2105,17.3198 -29.2371,25.8067 -9.1183,7.0108 -18.8082,13.7208 -28.9503,19.9827 m 6.1707,-2.862 c -20.7616,16.3555 -43.699,27.6353 -67.1244,35.7393 m 13.3376,-14.6166 c -11.1894,5.3246 -22.941,9.9307 -35.1601,13.8721 -12.2486,3.9509 -24.9474,7.228 -38.0154,9.8978 m 22.163,-0.5525 c -31.1187,8.0304 -63.7375,11.2496 -101.3409,10.3639 m 34.7523,-7.6672 c -11.6392,0.5817 -23.0271,0.8591 -34.211,0.75 -14.6972,-0.1433 -30.003,-1.4444 -45.893,-4.1789 m 21.5267,12.4955 c -21.6058,-2.4749 -46.0803,-6.7617 -71.08659,-13.6421 m 5.92996,3.7592 c -19.40605,-2.9694 -39.22691,-8.0311 -61.7106,-14.7346 -0.38919,-6.9784 -0.8458,-13.9765 -1.38841,-20.9538 m 9.43287,16.8128 c 0.95866,-31.6041 -1.98891,-59.6555 -6.44596,-87.3217 m 2.22648,22.5427 c -1.28743,-31.88446 0.19069,-63.97485 1.10361,-98.29847 m -3.95444,29.93283 c 0.35635,-10.74299 0.42166,-21.6567 0.31432,-32.65769 11.64479,5.13361 23.23936,9.37357 34.96158,12.84724 m -19.16369,0.46922 c 22.59274,8.32854 46.78359,13.34551 72.75557,15.71487 m -13.5923,-8.08533 c 14.6471,2.83963 30.5533,4.00636 47.3279,3.80547 9.4667,-0.11337 18.782,-0.55022 27.7393,-1.24479 m -10.6807,2.75415 c 23.4668,-0.51756 43.7587,-3.68063 60.8534,-9.07905 5.5058,-1.73872 10.6944,-3.71355 15.5655,-5.915 m -28.1305,6.86616 c 0.7161,-0.20146 1.429,-0.40329 2.139,-0.60569 21.2832,-6.06762 38.8775,-12.41675 54.3595,-21.45837 12.1063,-7.07013 22.1967,-15.41354 30.5341,-25.38669 m -17.9454,19.9196 c 9.6975,-9.31581 17.4733,-19.73228 23.2997,-31.53839 4.8092,-9.74481 8.2552,-20.37743 10.2715,-31.84816 m 2.4384,11.71169 c 3.4719,-11.5721 4.9506,-23.73811 4.46,-36.52365 -0.4343,-11.31638 -2.7883,-21.59869 -6.7977,-30.86254 m -1.0375,17.96668 c -2.1853,-10.54445 -5.6837,-20.64149 -10.7239,-30.26698 -6.2796,-11.99231 -14.9011,-23.14912 -26.1345,-33.41942 m 14.2557,13.10979 c -5.6568,-6.09528 -12.2955,-11.67232 -19.9299,-16.73052 -13.8236,-9.15883 -30.8848,-16.60546 -51.4824,-22.45504 m 14.9029,0.93838 c -7.6957,-3.27869 -15.9248,-6.20321 -24.6904,-8.82837 -13.8781,-4.15625 -28.729,-7.45528 -44.7203,-10.30713 m 12.9051,-1.90419 c -15.2304,-2.16588 -31.4959,-3.81394 -48.0552,-4.52256 -6.3508,-0.32232 -13.4183,-0.20089 -21.0891,0.43157 m 16.0421,1.49556 c -12.4825,-0.83807 -26.7118,-0.29824 -42.84165,1.62422 -11.9558,1.20804 -20.17899,2.05036 -28.08816,2.71543 -0.10454,0.009 -0.20869,0.0175 -0.31245,0.0262 m 15.91374,6.59476 c -6.40094,0.56244 -11.9804,1.00622 -16.77063,1.34152 -8.14501,0.57013 -14.16435,0.83785 -18.17265,0.83128 3.49866,-12.49181 7.36917,-25.03445 11.33409,-37.57778 m -5.56849,10.0705 c 7.68227,-27.9186 13.44889,-57.07653 17.81085,-85.32137 m 3.60027,27.13768 c 5.83188,-23.16336 12.15754,-46.50459 18.84081,-70.57159 m -16.61841,17.58559 c 7.2956,-28.45576 15.99028,-56.83546 26.0881,-85.78108 m -9.44352,13.50466 c 5.35931,-23.75815 12.5597,-48.03073 19.6533,-70.76555 m -2.7808,22.74525 c 6.4525,-28.0494 16.1105,-58.61943 26.2355,-88.89076 m 3.7101,16.19997 c 4.994,-18.94214 9.303,-36.66696 13.2262,-53.99075 5.5874,0.23635 11.1373,0.5117 16.6588,0.8013 m -19.4014,5.97676 c 32.785,0.97693 64.4771,-0.95565 97.0482,-3.03827 m -26.6373,-2.54804 c 26.9096,-0.17568 53.8995,1.78449 81.7045,5.52913 m -26.8117,1.89311 c 31.7097,0.98805 65.9248,-0.25743 99.2396,-0.83552 m -37.3861,-0.72744 c 23.8159,-0.38344 48.8788,-0.55768 74.0089,-1.14098 m -9.7658,8.25094 c 34.1975,1.40841 66.5714,-1.5456 100.4135,-4.69997 m -26.3213,-7.5665 c 17.5323,-0.70857 34.7717,-0.37416 52.1552,0.44032 m 1.7172,4.55441 c -5.8718,28.75964 -14.0254,56.6257 -21.185,85.02959 m 1.5196,-16.94438 c -6.083,22.4402 -12.8965,44.50852 -20.6209,65.3136 -6.1961,-0.53644 -12.4458,-1.14724 -18.7517,-1.84513 m 23.9161,-0.87186 c -0.5381,2.10205 -1.0783,4.18204 -1.6209,6.24092 -21.4806,0.39044 -43.2039,-1.41405 -65.3615,-4.39349 m 14.8216,3.39392 c -31.9867,0.86799 -63.4089,1.01773 -96.0515,2.76449 m 30.944,1.88318 c -27.9418,-1.32004 -54.1698,-0.69594 -80.4777,-0.7326 m 17.3351,-5.12652 c -9.2735,-0.21994 -18.5439,-0.34266 -27.785,-0.42065 -5.9245,21.70233 -11.6765,43.66795 -16.8831,65.14729 m 0.7603,-23.514 c -5.4152,22.92882 -11.0472,45.06625 -15.4186,67.2328 10.1399,-0.0797 20.2072,0.1379 30.3097,0.69879 m -31.3606,-8.8664 c -0.091,0.31964 -0.1818,0.63936 -0.2729,0.95916 24.6314,-0.0359 47.1061,2.38852 67.5629,7.05275 m -6.9016,2.61461 c 18.0273,2.90874 35.0169,6.94939 50.593,12.42919 12.0231,4.22982 23.1161,9.28739 33.0906,15.26029 m -17.4322,-8.13584 c 25.3146,9.38619 47.9673,24.73849 65.6488,43.55439 1.786,1.87719 3.5136,3.78267 5.1807,5.71424 m -18.9205,-17.84319 c 4.328,3.33837 8.4734,6.87469 12.4358,10.60087 13.7273,12.75542 24.8113,27.43333 33.2642,43.6762 m -8.4943,-16.62475 c 10.0157,14.23557 18.9756,30.15972 26.6848,47.85403 3.4492,7.91656 6.6474,16.18625 9.5727,24.80621 m -10.7415,-22.57672 c 8.7105,24.33305 13.8083,53.2441 15.0514,86.03275 m -0.6035,-22.22279 c 0.9856,11.35854 1.7046,23.13319 2.1557,35.30518 0.619,16.70303 0.7038,32.62163 0.02,48.14324 m -3.8148,-20.88047 c -3.283,26.10359 -7.235,52.09412 -14.7465,77.96016 m 8.6504,-16.20171 c -4.4362,14.93147 -9.5417,29.15622 -15.6652,42.95029 -6.7378,15.17775 -14.669,29.74174 -24.1548,43.92036 m 6.4539,-26.243 c -16.7431,28.0923 -36.1801,50.2523 -61.1084,67.9758 m 25.5378,-15.6948 c -7.4829,7.9914 -16.1527,15.4822 -25.8742,22.4305 -17.6022,12.5672 -37.6821,22.7966 -58.9407,30.4792 m 34.4514,-7.6331 c -21.529,14.4548 -44.9285,25.7702 -69.9976,35.4363 m 14.4843,-12.2456 c -6.9653,2.7551 -13.9806,5.251 -21.0833,7.5017 -23.1499,7.3354 -47.1285,12.0407 -73.6529,14.7232 m 25.3576,2.1134 c -25.3095,5.7616 -49.4642,5.7321 -73.5984,1.5445 -3.9743,-0.6896 -7.9969,-1.542 -12.0798,-2.5531 m 29.5413,6.2488 c -3.7597,0.2082 -7.5932,0.3543 -11.5018,0.4426 -23.8029,0.5376 -50.5649,-2.1649 -83.5714,-6.7079 m 28.9432,3.6583 c -26.8173,-2.9696 -54.08815,-10.2996 -87.11081,-21.6276 m 21.23361,13.2748 c -9.46345,-2.1036 -19.02696,-4.8218 -28.79334,-8.1777 -0.16186,-16.6082 -0.1722,-34.1313 -0.33926,-52.3199 m 2.25462,12.6572 c -1.00936,-26.4139 0.24602,-51.6524 1.82772,-75.25969 m -3.3116,19.44079 c 0.28786,-25.58348 0.86623,-51.60503 2.21236,-78.37743 4.67557,1.67022 9.40281,3.20492 14.18387,4.60208 m -13.07653,-0.68735 c -0.16773,-3.37867 -0.30128,-6.7484 -0.4059,-10.1082 19.80478,9.27148 41.37526,16.59923 63.23666,22.23714 m -20.9261,4.03539 c 24.4689,5.23352 51.1714,8.50939 79.552,7.73941 0.7101,-0.0193 1.4187,-0.0404 2.1259,-0.0635 m -25.3646,2.42645 c 5.4442,0.19164 10.9578,0.25826 16.5289,0.19128 20.804,-0.25013 39.6199,-1.74495 56.6377,-4.89759 m -13.7324,2.82015 c 11.4905,-1.53646 22.3879,-3.81149 32.6644,-6.84764 17.0041,-5.02384 32.1832,-12.09568 45.3671,-21.19995 m -26.9991,1.1558 c 9.872,-4.15991 18.6548,-8.82555 26.4516,-14.11019 11.7808,-7.9849 21.1849,-17.30314 28.4758,-28.09012 m 0.9215,16.68546 c 5.1578,-5.91974 9.4908,-12.42666 13.0491,-19.46776 7.3942,-14.63168 11.3231,-31.31521 12.6449,-49.60701 m -9.4175,11.8251 c 0.7492,-6.0992 1.1682,-12.42857 1.2689,-18.99135 0.2773,-18.07569 -2.9788,-33.87601 -9.7808,-47.57257 -0.5658,-1.13936 -1.156,-2.26358 -1.7703,-3.37268 m -1.5859,12.74895 c -1.2667,-3.88902 -2.8098,-7.62314 -4.6185,-11.20131 -7.1782,-14.20079 -18.5661,-26.0104 -33.7274,-35.42449 -7.4335,-4.61564 -15.7461,-8.63957 -24.8822,-12.09939 m 26.7222,19.4774 c -14.0177,-8.70929 -32.3337,-16.4198 -54.588,-22.72684 -10.2412,-2.90245 -21.4176,-5.53172 -33.3134,-7.752 m 30.8795,-8.89211 c -20.0904,-5.61443 -44.2016,-7.80217 -71.6042,-6.06519 -0.3611,0.0202 -0.7244,0.0421 -1.09,0.0658 m 23.3045,11.54107 c -4.8964,-0.51331 -9.9715,-0.9806 -15.2325,-1.40553 -13.8339,-1.22186 -31.3037,-0.91891 -53.19656,0.63062 -5.78055,0.31723 -11.18854,0.57134 -16.18666,0.76972 m 7.96545,-6.76831 c -1.5482,0.0939 -3.1159,0.20643 -4.70312,0.33796 -11.19227,0.72876 -21.70441,1.77844 -28.88918,2.49465 -7.79759,0.77731 -13.13519,1.31224 -17.09446,1.52156 3.32865,-9.37615 6.86443,-18.59355 10.69976,-27.76311 m 0.91167,19.30177 c 7.9624,-28.32614 15.56437,-56.84835 24.20856,-85.44772 m -5.65834,17.70647 c 5.86366,-25.1806 11.05799,-49.38313 14.39959,-72.71702 m -8.40889,21.59839 c 6.79032,-24.23038 13.16755,-48.8605 19.88444,-73.45798 m 4.89831,16.22976 c 6.66893,-31.43321 14.28193,-63.06275 18.91983,-95.82451 m -15.0082,30.79925 c 5.2472,-22.13704 12.2851,-46.19544 19.9794,-70.67372 m 0.3857,9.27712 c 5.5518,-22.18908 12.4587,-45.05802 19.9467,-66.86892 5.8051,0.33839 11.6402,0.73155 17.4963,1.19993 m -23.8091,4.17001 c 0.614,-2.23421 1.2192,-4.47703 1.8158,-6.7274 30.9407,0.69624 60.4304,0.11581 89.0368,0.59662 0,0 0.01,1.5e-4 0.01,1.5e-4 m -33.7883,0.42916 c 27.9171,-1.04173 57.2654,-1.00757 88.3123,-2.06833 m -23.2602,2.14687 c 28.8251,0.10014 58.3884,-2.20094 89.1172,-6.68734 m -27.4444,1.92173 c 28.603,0.15025 57.1665,1.2084 88.0537,3.48094 m -11.3446,4.9954 c 28.7093,-0.45014 53.7365,-1.07492 77.6403,-2.81548 m -21.0876,-3.94223 c 20.1384,-0.12909 39.203,0.47763 57.8841,1.67582 m 0.7351,14.9684 c -8.1551,28.99439 -16.5147,61.52556 -25.9261,94.09821 m 7.7234,-37.98153 c -4.7924,20.87182 -9.6819,41.55992 -13.8807,61.97322 -7.4196,-0.19435 -14.748,-0.425 -21.9473,-0.69635 m 29.7301,9.1056 c -31.5757,-1.53631 -67.8764,-0.76397 -104.56,-2.19069 m 37.6237,-0.50396 c -25.928,0.49671 -50.5875,0.85752 -75.6321,1.92725 m 10.4664,0.0646 c -26.5665,-0.36742 -51.4727,-1.7956 -75.5421,-4.94548 -0.7022,2.98696 -1.3889,5.94203 -2.0622,8.86353 m 18.8196,-1.65239 c -4.5659,-0.046 -9.0935,-0.10138 -13.5929,-0.16838 -8.0302,24.77767 -15.0496,49.13455 -23.2979,72.54988 m -2.0498,-27.1739 c -4.3126,18.2675 -9.3298,36.67594 -14.1799,55.27179 8.4416,0.1694 16.7325,0.60006 24.9302,1.29119 m -24.6727,4.10114 c 35.1507,1.83347 62.0455,2.07034 94.2755,6.13384 m -21.8347,-6.66421 c 13.1721,2.97227 25.887,6.43824 38.32,10.67691 19.2652,6.56791 37.5295,14.88684 55.0067,25.63748 m -23.0772,-16.66728 c 21.2335,10.83351 38.6034,22.19309 53.5613,35.71442 3.9299,3.50677 7.6379,7.1209 11.1454,10.86739 m -21.2493,-13.84931 c 0.9192,0.79267 1.8335,1.59784 2.7428,2.4154 21.4504,19.05696 38.84,43.93048 52.5553,73.26491 m -7.7674,-22.60859 c 5.6083,9.57894 10.2747,19.43914 14.0726,29.68471 5.464,14.7403 9.1183,30.23597 11.2541,46.98656 m 1.1647,-21.14893 c 5.3237,21.18932 8.4625,45.6217 9.3504,73.01897 m -11.5369,-11.05421 c 0.076,6.24977 0.1577,12.98206 0.2251,19.62618 0.2496,24.59852 0.32,47.28234 -1.5737,70.11146 m -3.5478,-29.65637 c -5.0557,29.67869 -10.572,55.91335 -20.1186,79.92816 -0.6474,1.62838 -1.3115,3.24112 -1.9931,4.83799 m 12.5616,-21.74063 c -2.0458,5.99381 -4.4361,11.96618 -7.1377,17.89059 -9.0071,19.75247 -21.485,39.00902 -36.4742,57.16231 m 20.6807,-20.80273 c -15.47,22.53023 -34.2782,42.71983 -57.4654,62.16363 m 14.6854,-15.5909 c -5.1579,4.3859 -10.4207,8.7032 -15.7909,12.9245 -14.7532,11.5845 -29.5519,21.9469 -44.9409,30.7087 m 16.2911,-9.3419 c -21.2818,14.2095 -44.7389,24.3373 -69.5947,31.9434 -5.53,1.6922 -11.1224,3.258 -16.7761,4.719 m 16.3833,-1.1024 c -2.9915,1.1769 -5.9697,2.2808 -8.936,3.3153 -25.9993,9.0665 -50.6743,12.6703 -75.6839,13.5288 m 25.6783,-1.9767 c -20.3561,2.3394 -43.5122,3.9306 -67.9857,3.5798 -9.7622,-0.1399 -20.1855,-0.7681 -31.0795,-2.0032 m 27.2849,5.3791 c -31.5059,1.2542 -59.9386,-4.2755 -96.02538,-13.2414 m 28.04398,-4.0571 c -23.66652,-3.8297 -46.81508,-9.2767 -72.17733,-16.0459 0.16295,-3.5241 0.33254,-7.0362 0.50526,-10.5347 m 10.06546,23.1757 c -3.57767,-1.1983 -7.20223,-2.3676 -10.8825,-3.5144 0.33034,-29.2564 -0.16743,-55.1685 -0.21553,-80.8576 m -0.7841,22.4901 c -0.48276,-29.9786 -0.85085,-58.61826 -2.26835,-87.18086 m -2.10676,18.64758 c -0.39638,-14.89935 -0.24774,-29.53095 0.21808,-44.00073 9.2023,4.04584 18.63809,7.71532 28.24328,10.9784 m -8.06634,-9.80288 c 30.43551,13.63696 61.06113,18.78338 89.97333,20.13153 m -31.0249,4.46411 c 14.8403,1.68693 29.4991,2.38967 44.3127,1.93187 14.8072,-0.4576 28.5707,-1.75719 41.6921,-3.97102 m -21.3538,0.57472 c 20.3362,-1.66679 37.8279,-3.66512 54.2154,-7.11753 6.2383,-1.31425 12.1827,-2.81478 17.8663,-4.53434 m -18.5567,8.53798 c 19.7871,-5.50203 35.8858,-12.29805 48.8838,-21.29485 9.5326,-6.59821 17.2366,-14.28743 23.1186,-23.13983 m -13.693,14.39644 c 9.0968,-8.62911 16.5391,-18.87837 22.1073,-30.68744 7.0602,-14.97318 11.177,-32.67474 11.4951,-52.07481 0.024,-1.45924 0.018,-2.9014 -0.017,-4.32659 m 5.4517,33.00487 c 0.9218,-7.72588 1.3524,-16.06957 1.2622,-25.02945 -0.1899,-18.85409 -3.7095,-36.09755 -11.2114,-51.95841 -0.046,-0.0974 -0.092,-0.19464 -0.1386,-0.29188 m 5.2356,10.16122 c -1.8674,-5.24788 -4.127,-10.26658 -6.8008,-15.05161 -7.7003,-13.78073 -18.8781,-25.66437 -33.6917,-35.06331 -8.0496,-5.10729 -17.2443,-9.51998 -27.5635,-13.01667 m 27.3406,12.2737 c -15.3375,-9.27585 -34.1854,-16.95695 -56.7227,-22.39536 -9.691,-2.33849 -20.1913,-4.29266 -31.5551,-5.77247 m 28.0632,-1.39131 c -21.913,-4.79517 -47.462,-7.90806 -76.6086,-7.75787 -5.3254,-0.0103 -11.1784,0.27698 -17.5734,0.89982 m 26.3753,1.09816 c -2.7112,-0.33168 -5.46,-0.64119 -8.2497,-0.93062 -13.792,-1.5371 -30.2559,-1.31752 -50.88406,0.068 -12.22284,0.61277 -22.1158,0.84974 -30.3278,0.81904 -0.28261,-0.001 -0.56278,-0.002 -0.84049,-0.004 m 20.65132,5.20285 c -9.5392,1.16902 -17.778,1.9069 -24.27879,2.35725 -8.03393,0.55656 -14.19597,0.73102 -18.15565,0.65661 2.57811,-9.50657 5.28822,-19.13661 8.012,-28.79055 m -6.11143,8.23133 c 6.0101,-27.55235 15.97208,-56.21952 26.71377,-83.93566 m -10.98657,28.74312 c 6.62804,-27.55301 15.3213,-54.81744 25.40595,-83.21285 m -1.84131,13.46062 c 7.14467,-25.29592 11.54518,-50.48898 14.24758,-75.24685 m 0.16396,20.97042 c 6.04082,-22.26522 12.61662,-45.04398 19.79222,-66.90944 m -11.1122,3.78153 c 7.9735,-27.76927 14.2408,-53.7897 20.7063,-78.80271 m -1.2593,24.34002 c 6.8088,-22.82597 12.3062,-44.87606 18.022,-67.23012 3.4128,-0.0465 6.8305,-0.0999 10.2583,-0.16378 m -18.1732,10.67996 c 0.7342,-2.64292 1.4671,-5.28093 2.1996,-7.91345 22.9765,0.30658 45.925,0.98283 69.3289,2.34637 m -21.6347,-5.76292 c 33.9235,0.0252 65.3709,-0.28008 98.7317,-0.84661 m -28.0159,4.55712 c 23.7174,-1.01355 47.997,-0.27516 72.3255,0.63638 m -2.612,0.18468 c 27.6693,0.88558 53.2955,1.30809 77.5589,3.05159 m -18.6454,-11.09859 c 24.2758,0.4717 46.8561,0.79278 67.9342,1.69216 m -16.9673,0.8853 c 24.8376,-1.15868 50.1228,-0.79558 75.685,-0.87112 m -22.5501,8.25397 c 5.8374,-0.24457 11.6072,-0.3693 17.3227,-0.39627 m 18.3636,2.10968 c -7.3908,23.62298 -14.6014,47.8996 -23.4206,71.21677 m -2.6328,-16.44038 c -7.3665,24.57692 -14.0949,49.99019 -21.55,74.24537 -3.8739,-0.19684 -7.7624,-0.41701 -11.6695,-0.66619 m 26.6205,-6.99232 c -1.159,4.54757 -2.3195,9.06954 -3.4834,13.57746 -22.7389,0.8827 -45.5627,1.40931 -68.7082,3.05216 m 9.989,-6.71857 c -28.3225,-0.65623 -56.2259,0.22763 -83.3459,1.18986 m 28.9327,0.21684 c -27.092,0.59844 -55.1486,0.29214 -82.5489,0.32357 m 19.7621,1.70762 c -11.0073,0.16245 -21.7878,0.0755 -32.444,-0.21106 -5.6208,19.16535 -10.7826,37.59359 -16.2126,55.63788 m 4.097,-25.1514 c -7.019,23.8224 -12.672,49.18136 -17.3254,76.30877 m 2.176,-21.46841 c -1.6375,5.86611 -3.286,11.60655 -4.949,17.24693 21.2019,0.21289 40.038,0.60633 58.4317,2.54544 m -22.8484,-0.692 c 23.1605,2.51595 45.6207,5.87042 67.3648,10.58617 4.4287,0.96047 8.8076,1.97315 13.1374,3.04109 m -14.9301,-9.96904 c 1.8747,0.52015 3.7435,1.0759 5.6046,1.6656 23.3853,7.4098 45.6435,20.17618 64.3699,35.9451 m -14.659,-8.86045 c 11.0055,6.65196 21.4828,14.70936 31.1656,23.87454 8.4912,7.9417 16.1811,16.58293 22.9083,25.73859 m -2.8511,-6.86842 c 17.4656,17.54256 30.2725,39.6919 39.0606,64.56649 1.9992,5.6587 3.7905,11.45631 5.3856,17.37552 M 1385.215,717.4456 c 1.0948,2.55055 2.1364,5.1452 3.1236,7.78263 7.2896,19.47438 11.6786,41.4703 12.4758,65.23263 m 2.3873,-16.92482 c 2.385,17.86316 3.6929,36.52807 3.4261,56.09983 -0.1812,13.29606 -1.0606,26.22429 -2.7948,39.08757 m -1.5459,-29.92842 c -1.6645,27.5665 -5.3818,51.81378 -12.7054,73.96914 m 14.0068,-8.804 c -4.8213,20.70802 -11.4084,39.00095 -20.3008,55.75482 -6.1071,11.50619 -13.3052,22.28807 -21.747,32.545 m 11.1531,-31.92262 c -11.9469,20.51028 -24.9351,41.00494 -40.8037,60.62604 m 11.0088,-7.3767 c -12.4673,15.1975 -25.7869,28.8585 -40.1731,41.5361 -8.814,7.7583 -17.6921,14.8999 -26.712,21.5471 m 20.007,-17.4734 c -18.4094,13.4786 -40.8455,26.4324 -65.5992,37.1447 m 15.7174,-10.5151 c -14.4374,6.5105 -30.0852,12.5108 -46.7409,17.3891 -9.7596,2.8585 -19.904,5.3429 -30.3679,7.3099 m 21.184,-5.9073 c -25.6508,7.7958 -51.9151,12.0297 -81.7488,14.1918 m 25.3635,3.0294 c -18.0001,2.3103 -36.0205,3.3886 -54.8295,3.4336 -9.7809,0.023 -20.0344,-0.4212 -30.9962,-1.2936 m 22.2266,-6.1261 c -21.3364,-0.8211 -47.4328,-3.9954 -75.66942,-9.6914 m 18.39942,12.3291 c -20.0518,-4.5162 -48.3012,-10.6555 -71.68543,-16.8964 m 12.74258,-5.5315 c -6.70152,-1.9718 -13.52178,-3.8787 -20.51486,-5.7391 -0.19366,-23.8947 -0.64925,-45.8004 -1.43295,-66.8692 m 4.62326,26.3466 c 1.32902,-27.6081 -1.33076,-56.9687 -5.06776,-86.4005 m 2.09871,23.01781 c 0.30301,-19.01836 0.17431,-37.86117 -0.0869,-56.62007 4.48745,2.03412 8.99183,3.95696 13.51977,5.76735 m -11.63593,-4.10162 c 0.004,-0.18108 0.008,-0.36226 0.012,-0.54354 24.82191,10.6698 49.72849,16.00317 75.49999,16.13997 m -18.32069,5.78275 c 20.73689,5.35025 42.81349,6.65409 65.39679,4.69708 6.029,-0.52246 11.9078,-1.21352 17.5986,-2.04574 m -24.4208,-3.71049 c 1.2047,0.009 2.4067,0.0144 3.6063,0.0161 28.6255,0.0398 51.3766,-1.02086 71.1722,-4.2111 3.1803,-0.51252 6.2659,-1.07792 9.2623,-1.69881 m -18.6846,5.17154 c 4.439,-0.63293 8.684,-1.42185 12.7425,-2.34956 21.0673,-4.81561 37.8397,-13.53539 50.7208,-24.63483 5.5529,-4.78485 10.4606,-10.07683 14.7485,-15.8282 m -12.7815,13.41483 c 0.9708,-0.64767 1.9272,-1.30617 2.8692,-1.97545 13.8813,-9.86241 24.5277,-21.98484 32.0534,-36.19959 3.1568,-5.9626 5.748,-12.26305 7.7897,-18.85999 m -12.725,16.45398 c 5.6174,-14.18156 8.5102,-30.64489 8.6761,-49.29295 0.1475,-16.57392 -2.7585,-31.49799 -8.7807,-44.70445 m 15.4164,25.99389 c -1.7672,-10.87237 -5.2687,-21.01432 -10.5098,-30.33155 -7.9556,-14.1428 -19.9752,-26.4822 -36.2246,-36.67582 -2.5456,-1.59692 -5.1977,-3.14278 -7.957,-4.63528 m 25.1168,13.39777 c -4.0757,-3.73485 -8.5484,-7.26225 -13.4349,-10.59665 -15.8751,-10.83283 -35.6532,-19.37092 -61.1315,-27.09117 -6.3892,-1.93601 -13.1013,-3.81271 -20.2227,-5.6829 m 24.5192,9.4465 c -3.0562,-0.88312 -6.1803,-1.71818 -9.3678,-2.50116 -22.1638,-5.44431 -48.535,-8.63251 -76.5147,-7.16636 -1.3359,0.0592 -2.7034,0.14585 -4.1014,0.26083 m 23.3547,1.02881 c -6.5892,-0.56185 -14.6187,-1.24403 -21.9123,-1.85827 -13.3361,-1.22545 -30.9542,-1.39788 -51.3422,-0.68297 -6.30667,0.11515 -12.19871,0.15604 -17.39074,0.15178 m 27.18389,3.7578 c -2.44281,0.1253 -4.93091,0.28199 -7.46827,0.46958 -13.0549,0.74174 -21.03858,1.24791 -30.02426,1.64837 -8.03,0.35787 -13.93414,0.47597 -18.01565,0.35867 2.09214,-7.78394 4.21153,-15.61119 6.35161,-23.53378 m -8.81396,20.98188 c 8.68031,-28.19684 14.29192,-55.24299 20.02718,-81.60818 m 0.336,14.56282 c 6.80606,-29.03279 14.8566,-56.95667 23.106,-86.14839 m -3.67982,29.84593 c 6.28064,-27.24956 13.05856,-54.7947 18.56137,-82.24142 m -0.83309,14.65436 c 7.06354,-27.29788 12.99544,-56.67869 16.91954,-84.89117 m -4.6642,26.84055 c 6.9292,-24.03959 11.8226,-48.43247 15.8319,-73.03982 m -3.6547,15.16009 c 6.0657,-23.09867 11.5542,-45.11303 16.7531,-66.80614 0.5296,0.0209 1.059,0.042 1.5882,0.0632 m -4.6955,11.79214 c 0.9954,-4.27407 2.0136,-8.58773 3.0456,-12.93165 19.9707,0.43243 40.217,0.26032 59.9341,0.31575 m -17.3178,-6.83898 c 26.5144,0.83813 53.3335,1.46102 79.1624,3.51543 m -11.2299,-4.53135 c 23.3001,0.0468 46.709,1.06689 69.4529,3.13706 m -16.546,7.60501 c 25.9278,-0.25062 51.693,-0.003 77.7429,0.28773 m -22.7316,-5.24813 c 24.8251,1.03648 47.8886,-0.22679 70.6161,-2.18712 m -12.0404,4.56968 c 27.8003,0.51136 53.3456,0.52344 77.6978,1.06963 m -14.5858,-2.98357 c 12.7358,0.37453 25.2087,0.64296 37.6018,0.96194 m -187.3959,520.45723 -14.0115,-89.38455 m -51.4077,-431.3318 143.5156,0 M 995.97365,509.25591 1033.4023,364.88825 m 93.1457,209.7883 158.8347,24.6861 m -351.58139,491.96015 0,-169.53121"
       id="path15669"
       inkscape:connector-curvature="0"
       inkscape:path-effect="#path-effect15681"
       inkscape:original-d="m 1419.0901,340.49179 -35.3087,136.30783 -206.1041,0 -30.3818,105.92598 q 119.8852,0 188.8605,64.04828 69.7961,64.04828 69.7961,179.82785 0,142.8769 -103.4627,224.99007 -91.1457,72.2596 -224.169,72.2596 -59.9425,0 -144.51909,-24.6338 l 0,-166.68987 q 58.30029,25.455 122.34859,25.455 166.6897,0 166.6897,-123.16973 0,-109.21048 -181.4701,-122.3486 -20.5283,-1.64224 -50.9101,1.64225 -36.12978,3.2846 -48.44676,3.2846 l 97.71466,-376.89946 379.3628,0 z" />
  </g>
</svg>
