<?xml version="1.0" encoding="UTF-8" standalone="no"?>
<!-- Created with Inkscape (http://www.inkscape.org/) -->

<svg
   xmlns:dc="http://purl.org/dc/elements/1.1/"
   xmlns:cc="http://creativecommons.org/ns#"
   xmlns:rdf="http://www.w3.org/1999/02/22-rdf-syntax-ns#"
   xmlns:svg="http://www.w3.org/2000/svg"
   xmlns="http://www.w3.org/2000/svg"
   xmlns:sodipodi="http://sodipodi.sourceforge.net/DTD/sodipodi-0.dtd"
   xmlns:inkscape="http://www.inkscape.org/namespaces/inkscape"
   width="1368"
   height="768"
   viewBox="0 0 1368 768.00001"
   id="svg4937"
   version="1.1"
   inkscape:version="0.91 r13725"
   sodipodi:docname="ML_neural_logo.svg">
  <defs
     id="defs4939" />
  <sodipodi:namedview
     id="base"
     pagecolor="#ffffff"
     bordercolor="#666666"
     borderopacity="1.0"
     inkscape:pageopacity="0.0"
     inkscape:pageshadow="2"
     inkscape:zoom="0.49497475"
     inkscape:cx="106.21319"
     inkscape:cy="192.48483"
     inkscape:document-units="px"
     inkscape:current-layer="layer1"
     showgrid="true"
     units="px"
     showguides="true"
     inkscape:window-width="1292"
     inkscape:window-height="741"
     inkscape:window-x="-9"
     inkscape:window-y="-9"
     inkscape:window-maximized="1"
     objecttolerance="10000"
     guidetolerance="10000"
     inkscape:guide-bbox="true">
    <inkscape:grid
       type="xygrid"
       id="grid5485"
       empspacing="20" />
    <sodipodi:guide
       position="400,560.00001"
       orientation="1,0"
       id="guide4686" />
    <sodipodi:guide
       position="220,380"
       orientation="0,1"
       id="guide4774" />
  </sodipodi:namedview>
  <metadata
     id="metadata4942">
    <rdf:RDF>
      <cc:Work
         rdf:about="">
        <dc:format>image/svg+xml</dc:format>
        <dc:type
           rdf:resource="http://purl.org/dc/dcmitype/StillImage" />
        <dc:title></dc:title>
      </cc:Work>
    </rdf:RDF>
  </metadata>
  <g
     inkscape:label="Layer 1"
     inkscape:groupmode="layer"
     id="layer1"
     transform="translate(0,-284.36214)">
    <path
       style="color:#000000;clip-rule:nonzero;display:inline;overflow:visible;visibility:visible;opacity:0.3;isolation:auto;mix-blend-mode:normal;color-interpolation:sRGB;color-interpolation-filters:linearRGB;solid-color:#000000;solid-opacity:1;fill:#000000;fill-opacity:1;fill-rule:evenodd;stroke:none;stroke-width:15;stroke-linecap:round;stroke-linejoin:round;stroke-miterlimit:4;stroke-dasharray:none;stroke-dashoffset:0;stroke-opacity:1;color-rendering:auto;image-rendering:auto;shape-rendering:auto;text-rendering:auto;enable-background:accumulate"
       d="m 158.97431,768.21049 c -37.19038,0 -67.499986,30.30962 -67.499996,67.5 0,35.67861 27.901076,65.00518 63.005856,67.33204 l 0,53.07421 a 39.999981,39.999981 0 0 0 -35.21679,35.38086 l -53.031246,0 c -2.32684,-35.1048 -31.65538,-63.00585 -67.3339897,-63.00586 -35.6786103,0 -65.0051703,27.90108 -67.3320303,63.00586 l -53.074224,0 a 39.999981,39.999981 0 0 0 -39.69726,-35.50586 39.999981,39.999981 0 0 0 -40,40 39.999981,39.999981 0 0 0 40,39.99996 39.999981,39.999981 0 0 0 39.72461,-35.5039 l 53.046874,0 c 2.32782,35.1039 31.65408,63.0039 67.3320303,63.0039 35.6784097,0 65.0068597,-27.8993 67.3339897,-63.0039 l 53.044916,0 a 39.999981,39.999981 0 0 0 39.69726,35.3262 39.999981,39.999981 0 0 0 40,-39.99999 39.999981,39.999981 0 0 0 -35.5039,-39.72461 l 0,-53.04687 c 35.10388,-2.32782 63.00392,-31.65409 63.0039,-67.33204 0,-37.19038 -30.30961,-67.5 -67.5,-67.5 z m 0,15 c 29.0838,0 52.5,23.41622 52.5,52.5 0,29.08379 -23.4162,52.5 -52.5,52.5 -29.08377,0 -52.5,-23.41621 -52.5,-52.5 0,-29.08378 23.41623,-52.5 52.5,-52.5 z M -1.1018557,943.49174 c 29.0837797,0 52.4999997,23.41623 52.4999997,52.5 0,29.08376 -23.41622,52.49996 -52.4999997,52.49996 -29.0837903,0 -52.5000003,-23.4162 -52.5000003,-52.49996 0,-29.08377 23.41621,-52.5 52.5000003,-52.5 z"
       id="path4684"
       inkscape:connector-curvature="0" />
    <path
       style="color:#000000;clip-rule:nonzero;display:inline;overflow:visible;visibility:visible;opacity:0.3;isolation:auto;mix-blend-mode:normal;color-interpolation:sRGB;color-interpolation-filters:linearRGB;solid-color:#000000;solid-opacity:1;fill:#000000;fill-opacity:1;fill-rule:evenodd;stroke:none;stroke-width:15;stroke-linecap:round;stroke-linejoin:round;stroke-miterlimit:4;stroke-dasharray:none;stroke-dashoffset:0;stroke-opacity:1;color-rendering:auto;image-rendering:auto;shape-rendering:auto;text-rendering:auto;enable-background:accumulate"
       d="m 159.58369,421.13178 a 39.999981,39.999981 0 0 0 -40,40 39.999981,39.999981 0 0 0 40,40 39.999981,39.999981 0 0 0 40,-40 39.999981,39.999981 0 0 0 -40,-40 z m 0,80 -4.49414,0 0,78.98438 -35.50586,0 a 7.50075,7.50075 0 0 0 -7.5,7.5 l 0,80 a 7.50075,7.50075 0 0 0 7.5,7.5 l 80,0 a 7.50075,7.50075 0 0 0 7.5,-7.5 l 0,-80 a 7.50075,7.50075 0 0 0 -7.5,-7.5 l -35.50586,0 0,-78.98438 -4.49414,0 z m -32.5,93.98438 65,0 0,65 -65,0 0,-65 z"
       id="path4684-4"
       inkscape:connector-curvature="0" />
    <path
       style="color:#000000;font-style:normal;font-variant:normal;font-weight:normal;font-stretch:normal;font-size:medium;line-height:normal;font-family:sans-serif;text-indent:0;text-align:start;text-decoration:none;text-decoration-line:none;text-decoration-style:solid;text-decoration-color:#000000;letter-spacing:normal;word-spacing:normal;text-transform:none;direction:ltr;block-progression:tb;writing-mode:lr-tb;baseline-shift:baseline;text-anchor:start;white-space:normal;clip-rule:nonzero;display:inline;overflow:visible;visibility:visible;opacity:1;isolation:auto;mix-blend-mode:normal;color-interpolation:sRGB;color-interpolation-filters:linearRGB;solid-color:#000000;solid-opacity:1;fill:#000000;fill-opacity:1;fill-rule:evenodd;stroke:none;stroke-width:10;stroke-linecap:butt;stroke-linejoin:miter;stroke-miterlimit:4;stroke-dasharray:none;stroke-dashoffset:0;stroke-opacity:1;color-rendering:auto;image-rendering:auto;shape-rendering:auto;text-rendering:auto;enable-background:accumulate"
       d="m 487.97988,692.40242 78.98438,0 0,-8.98985 -78.98438,0 0,8.98985 z"
       id="path4707-7"
       inkscape:connector-curvature="0" />
  </g>
</svg>
