<?xml version="1.0" encoding="utf-8"?>
<!-- Generator: Adobe Illustrator 16.0.0, SVG Export Plug-In . SVG Version: 6.00 Build 0)  -->
<!DOCTYPE svg PUBLIC "-//W3C//DTD SVG 1.1//EN" "http://www.w3.org/Graphics/SVG/1.1/DTD/svg11.dtd">
<svg version="1.1" id="Calque_1" xmlns="http://www.w3.org/2000/svg" xmlns:xlink="http://www.w3.org/1999/xlink" x="0px" y="0px"
	 width="1133.225px" height="332.356px" viewBox="0 0 1133.225 332.356" enable-background="new 0 0 1133.225 332.356"
	 xml:space="preserve">
<g>
	<path d="M329.23,112.677c5.724-16.685,14.146-32.421,24.822-46.46c10.583-13.916,23.363-26.146,37.733-36.105
		c14.542-10.076,30.691-17.805,47.672-22.775c18.179-5.322,37.251-7.459,56.159-6.394c21.749,1.226,43.193,6.765,62.795,16.271
		c13.137,6.372,25.418,14.491,36.439,24.067c-21.826,23.148-37.676,51.992-45.067,84.074c-10.746-16.56-27.864-28.57-47.146-32.869
		c-18.376-4.098-37.987-1.117-54.293,8.293c-15.269,8.812-27.233,22.932-33.358,39.469c-6.356,17.16-6.222,36.467,0.378,53.537
		c6.357,16.443,18.514,30.394,33.899,38.99c17.466,9.758,38.631,12.217,57.861,6.619c17.463-5.084,32.757-16.457,42.659-31.717
		c7.924-12.211,12.192-26.604,12.192-41.162h0.006c0-20.914,3.942-41.781,11.671-61.221c7.49-18.838,18.476-36.246,32.216-51.148
		c15.39-16.691,34.169-30.157,54.927-39.355c21.932-9.686,45.877-14.492,69.848-14.092c18.232,0.305,36.39,3.603,53.541,9.8
		c16.573,5.988,32.157,14.651,46.013,25.538c13.749,10.803,25.778,23.773,35.51,38.301c9.858,14.718,17.334,31.01,22.032,48.091
		c3.945,14.345,5.924,29.212,5.924,44.087c0,18.283-3.001,36.543-8.935,53.84c-5.724,16.684-14.146,32.42-24.822,46.459
		c-10.583,13.916-23.363,26.146-37.733,36.105c-14.542,10.078-30.691,17.806-47.672,22.777c-18.179,5.321-37.251,7.459-56.159,6.393
		c-21.749-1.226-43.193-6.764-62.795-16.271c-13.137-6.372-25.418-14.491-36.439-24.067c21.826-23.147,37.676-51.992,45.067-84.073
		c10.746,16.559,27.864,28.569,47.146,32.869c18.376,4.098,37.987,1.116,54.293-8.295c15.269-8.811,27.233-22.932,33.358-39.467
		c6.356-17.162,6.222-36.469-0.378-53.537c-6.357-16.443-18.514-30.395-33.899-38.99c-17.466-9.758-38.631-12.217-57.861-6.62
		c-17.463,5.083-32.757,16.457-42.659,31.716c-7.924,12.211-12.192,26.604-12.192,41.162h-0.006
		c0,20.916-3.942,41.783-11.671,61.222c-7.49,18.839-18.476,36.245-32.216,51.147c-15.39,16.692-34.169,30.158-54.927,39.357
		c-21.932,9.686-45.877,14.49-69.848,14.091c-18.232-0.304-36.39-3.603-53.541-9.8c-16.573-5.988-32.157-14.652-46.013-25.538
		c-13.749-10.802-25.778-23.774-35.51-38.302c-9.858-14.717-17.334-31.01-22.032-48.09c-3.945-14.344-5.924-29.212-5.924-44.088
		C320.296,148.232,323.297,129.974,329.23,112.677z"/>
	<g>
		<path d="M1015.181,243.033c-42.192,0-76.518-34.325-76.518-76.517S972.988,90,1015.181,90c20.509,0,39.772,8.01,54.243,22.554
			l63.801-63.477C1101.738,17.429,1059.815,0,1015.181,0c-55.474,0-104.69,27.273-134.969,69.109
			c9.792,15.287,17.185,31.867,21.99,49.342c4.287,15.587,6.461,31.759,6.461,48.064c0,20.104-3.279,39.855-9.746,58.707
			c-4.675,13.624-10.945,26.59-18.705,38.701c30.277,41.836,79.495,69.109,134.969,69.109c44.319,0,86.028-17.216,117.443-48.476
			l-63.482-63.797C1054.708,235.123,1035.544,243.033,1015.181,243.033z"/>
	</g>
</g>
<path d="M311.757,214.582c-4.287-15.587-6.461-31.759-6.461-48.066c0-20.103,3.279-39.854,9.746-58.706
	c4.87-14.196,11.481-27.675,19.697-40.22l0.006-58.424L167.356,175.141L-0.033,9.166L0,324.814l90-0.01l-0.012-99.635l77.368,76.713
	l77.367-76.713l-0.011,99.635l90,0.01l0.007-59.405C324.448,249.714,316.721,232.627,311.757,214.582z"/>
</svg>
